<?xml version="1.0" encoding="UTF-8"?>
<svg version="1.1" xmlns="http://www.w3.org/2000/svg" width="619" height="403">
<path d="M0 0 C1.91483878 -0.016373 3.82962141 -0.04340745 5.74414062 -0.08203125 C38.96657334 -0.74665328 71.05377359 11.7770295 96.34985352 33.35009766 C97.21610352 34.27628906 97.21610352 34.27628906 98.09985352 35.22119141 C99.80511699 36.99356016 101.13244924 38.27850689 103.34985352 39.35009766 C106.95498969 39.05068804 110.02764638 37.72187988 113.34985352 36.35009766 C137.8078577 27.90167034 168.41730715 30.38557972 192.34985352 39.35009766 C193.28958008 39.69298828 194.22930664 40.03587891 195.19750977 40.38916016 C200.88974502 42.55344126 206.12749988 45.22718267 211.34985352 48.35009766 C212.19161133 48.84123047 213.03336914 49.33236328 213.90063477 49.83837891 C221.72907454 54.58529101 228.56116039 60.24835562 235.34985352 66.35009766 C236.55641602 67.42904297 236.55641602 67.42904297 237.78735352 68.52978516 C247.59955887 77.81633665 255.36094548 89.29425021 261.34985352 101.35009766 C261.89706055 102.39037109 261.89706055 102.39037109 262.45532227 103.45166016 C266.6391747 111.49876331 269.5093023 119.47989846 271.34985352 128.35009766 C272.00356934 128.4701416 272.65728516 128.59018555 273.33081055 128.71386719 C285.99330272 131.08070896 297.79955576 133.46234142 309.34985352 139.35009766 C310.35145508 139.83736328 311.35305664 140.32462891 312.38500977 140.82666016 C320.45634397 144.97398603 328.70409569 150.13098107 335.34985352 156.35009766 C335.34985352 157.01009766 335.34985352 157.67009766 335.34985352 158.35009766 C336.66985352 159.01009766 337.98985352 159.67009766 339.34985352 160.35009766 C339.34985352 161.01009766 339.34985352 161.67009766 339.34985352 162.35009766 C339.91704102 162.57052734 340.48422852 162.79095703 341.06860352 163.01806641 C344.06156955 164.76567157 345.70494021 166.94840086 347.84985352 169.66259766 C348.60266602 170.60748047 349.35547852 171.55236328 350.13110352 172.52587891 C350.86329102 173.45787109 351.59547852 174.38986328 352.34985352 175.35009766 C353.02274414 176.14416016 353.69563477 176.93822266 354.38891602 177.75634766 C360.54746816 185.90232101 364.47200802 195.98848376 367.72485352 205.60009766 C367.96316895 206.29514404 368.20148437 206.99019043 368.44702148 207.70629883 C376.69441224 233.27916497 373.79470216 262.28023612 362.34985352 286.35009766 C356.74392749 297.17942769 349.67806301 307.42701605 341.34985352 316.35009766 C340.68985352 316.35009766 340.02985352 316.35009766 339.34985352 316.35009766 C339.14360352 316.91212891 338.93735352 317.47416016 338.72485352 318.05322266 C336.85643408 321.17433239 334.24599406 323.00312797 331.34985352 325.10009766 C330.80329102 325.51130859 330.25672852 325.92251953 329.69360352 326.34619141 C325.62186348 329.35009766 325.62186348 329.35009766 323.34985352 329.35009766 C323.34985352 330.01009766 323.34985352 330.67009766 323.34985352 331.35009766 C312.31914721 340.10419627 296.92140149 344.72061024 283.34985352 347.35009766 C282.11707232 347.68693101 280.88429111 348.02376436 279.61415291 348.37080479 C272.81641716 349.87384012 265.91887082 349.63675673 258.99606323 349.62425232 C257.43726093 349.62870967 255.87846088 349.63402535 254.31966412 349.64012104 C250.05178673 349.654253 245.78398234 349.65596524 241.51608491 349.65552413 C236.90633796 349.6571767 232.2966207 349.67025181 227.68688965 349.68171692 C217.61181984 349.70453675 207.53677113 349.71248502 197.46167898 349.71754336 C191.16191006 349.72080538 184.86214722 349.72733111 178.56238174 349.73454475 C161.09652593 349.75411059 143.63067575 349.77051362 126.16480827 349.77342129 C125.04771802 349.77360886 123.93062776 349.77379643 122.77968628 349.77398968 C120.51534088 349.77435592 118.25099549 349.77471962 115.98665009 349.77508079 C114.86272304 349.7752636 113.73879599 349.77544641 112.58081055 349.77563477 C111.45549959 349.77581531 110.33018863 349.77599586 109.17077734 349.77618188 C90.96416271 349.77971842 72.75766674 349.80670828 54.55109321 349.84413265 C35.82751543 349.88230927 17.10399637 349.90157947 -1.61962116 349.9018808 C-12.11947072 349.90246344 -22.61917891 349.91082954 -33.11899185 349.93987846 C-42.06596866 349.96451832 -51.01275259 349.9715912 -59.95975424 349.95663094 C-64.51560679 349.94951195 -69.07107948 349.95009963 -73.62688828 349.97304153 C-112.96612389 350.15903593 -144.34736487 343.6513817 -173.71264648 315.66259766 C-194.47515796 294.34071582 -205.11409291 266.30512146 -204.80639648 236.65087891 C-203.29189688 204.65707481 -189.86024471 177.60274007 -166.44213867 155.92626953 C-160.97392991 151.11662978 -154.96704047 146.74448493 -148.23999023 143.91650391 C-144.70737696 142.36282775 -142.32872801 141.14533432 -139.65014648 138.35009766 C-137.84215579 133.10184526 -138.02102258 127.35392729 -137.80737305 121.86230469 C-135.7150121 88.43001559 -114.35986153 55.90095989 -90.08764648 34.10009766 C-86.93824172 31.35009766 -86.93824172 31.35009766 -84.65014648 31.35009766 C-84.65014648 30.69009766 -84.65014648 30.03009766 -84.65014648 29.35009766 C-82.55332338 27.83941818 -80.46886518 26.45701678 -78.27514648 25.10009766 C-77.63391846 24.69750732 -76.99269043 24.29491699 -76.33203125 23.88012695 C-75.03708805 23.06959263 -73.73997963 22.26250674 -72.44067383 21.45898438 C-70.9376103 20.52812611 -69.44320194 19.58331234 -67.95092773 18.63525391 C-53.7644701 9.79509766 -38.77572931 5.36222566 -22.65014648 1.35009766 C-21.90128174 1.1614917 -21.15241699 0.97288574 -20.38085938 0.77856445 C-13.68197354 -0.27253476 -6.76589424 0.04211964 0 0 Z M-71.65014648 56.35009766 C-71.65014648 57.01009766 -71.65014648 57.67009766 -71.65014648 58.35009766 C-72.20702148 58.57181641 -72.76389648 58.79353516 -73.33764648 59.02197266 C-76.37911482 60.7687619 -78.31192846 62.99098852 -80.65014648 65.60009766 C-81.49577148 66.53337891 -82.34139648 67.46666016 -83.21264648 68.42822266 C-87.7321248 73.32623939 -87.7321248 73.32623939 -89.65014648 79.35009766 C-91.13514648 79.84509766 -91.13514648 79.84509766 -92.65014648 80.35009766 C-94.21014153 82.82020113 -94.21014153 82.82020113 -95.58764648 85.85009766 C-96.10842773 86.93806641 -96.62920898 88.02603516 -97.16577148 89.14697266 C-97.65561523 90.20400391 -98.14545898 91.26103516 -98.65014648 92.35009766 C-99.03686523 93.18025391 -99.42358398 94.01041016 -99.82202148 94.86572266 C-100.79871126 97.01444016 -101.7368242 99.17375762 -102.65014648 101.35009766 C-103.0484668 102.295625 -103.0484668 102.295625 -103.45483398 103.26025391 C-110.53939771 121.04469997 -112.88537808 140.13394584 -106.65014648 158.35009766 C-107.88764648 158.57697266 -109.12514648 158.80384766 -110.40014648 159.03759766 C-120.85794883 161.35053972 -130.86907823 166.34243758 -139.71264648 172.28759766 C-140.71424805 172.95662109 -141.71584961 173.62564453 -142.74780273 174.31494141 C-158.78777366 185.56235036 -170.74257574 204.14958818 -174.65014648 223.35009766 C-178.51600879 245.84726858 -173.23269378 266.88567896 -160.93530273 286.01806641 C-158.93417798 288.80483132 -158.93417798 288.80483132 -156.65014648 291.35009766 C-155.99014648 291.35009766 -155.33014648 291.35009766 -154.65014648 291.35009766 C-154.27889648 292.21634766 -154.27889648 292.21634766 -153.90014648 293.10009766 C-152.4671466 295.67949745 -150.86589972 297.41131358 -148.65014648 299.35009766 C-147.99014648 299.35009766 -147.33014648 299.35009766 -146.65014648 299.35009766 C-146.32014648 300.34009766 -145.99014648 301.33009766 -145.65014648 302.35009766 C-143.67635599 303.79433461 -141.72857053 305.07490736 -139.65014648 306.35009766 C-139.05975586 306.74326172 -138.46936523 307.13642578 -137.86108398 307.54150391 C-122.8977465 317.36311843 -107.24729344 320.97180647 -89.57914734 320.86476135 C-88.01572401 320.8701005 -86.45230584 320.87717399 -84.88889724 320.88580841 C-80.63622941 320.9042818 -76.38391344 320.89818419 -72.1312319 320.88765538 C-67.52780626 320.88061938 -62.92444974 320.89669455 -58.32104492 320.90965271 C-49.3192925 320.93122549 -40.31766682 320.93118299 -31.31589707 320.92302717 C-23.99421921 320.91671082 -16.67257814 320.91787915 -9.35090065 320.92429924 C-8.3062681 320.9252009 -7.26163555 320.92610255 -6.18534747 320.92703153 C-4.06273064 320.92888286 -1.94011381 320.93074542 0.18250301 320.93261909 C20.05956334 320.94917448 39.93655257 320.94049797 59.81360861 320.92363351 C77.96826319 320.90894225 96.12275219 320.92356092 114.27738545 320.95240367 C132.95255021 320.9818507 151.62763869 320.99275426 170.30282563 320.98322147 C172.41827053 320.982199 174.53371545 320.98120439 176.64916039 320.98023796 C177.68980054 320.97976157 178.7304407 320.97928518 179.80261541 320.97879435 C187.10708546 320.97663703 194.41148273 320.986398 201.71593666 321.00100899 C210.62998994 321.018592 219.54383234 321.01832985 228.45787755 320.99565733 C232.99896337 320.98456854 237.53967847 320.98122972 242.0807476 320.99995804 C267.43396629 321.09662612 290.82486665 320.34238455 311.34985352 303.35009766 C312.33985352 302.69009766 313.32985352 302.03009766 314.34985352 301.35009766 C314.34985352 300.69009766 314.34985352 300.03009766 314.34985352 299.35009766 C314.92735352 299.10259766 315.50485352 298.85509766 316.09985352 298.60009766 C318.67925331 297.16709777 320.41106943 295.56585089 322.34985352 293.35009766 C322.34985352 292.69009766 322.34985352 292.03009766 322.34985352 291.35009766 C322.94024414 291.12064453 323.53063477 290.89119141 324.13891602 290.65478516 C332.99965914 285.42600741 338.71543035 269.04988606 341.72485352 259.66259766 C346.76453542 239.41987535 343.82316043 217.37845259 333.34985352 199.35009766 C328.82315452 192.0692597 324.44679672 185.58954112 317.66235352 180.22509766 C315.34985352 178.35009766 315.34985352 178.35009766 313.34985352 175.35009766 C311.70428785 174.3157421 310.03279271 173.32246253 308.34985352 172.35009766 C307.40110352 171.58697266 306.45235352 170.82384766 305.47485352 170.03759766 C288.55767115 157.78467126 267.3071798 157.13728257 247.34985352 157.35009766 C247.24962891 156.72143799 247.1494043 156.09277832 247.04614258 155.44506836 C242.30248226 126.04459315 232.92516407 100.3449911 208.66235352 81.35009766 C190.82745824 68.54108285 172.96958603 61.16954981 151.01489258 61.10986328 C148.88394703 61.10025144 146.75400683 61.06923706 144.62329102 61.03759766 C129.49482061 60.92054463 116.60794323 64.55416123 103.24438477 71.46728516 C100.35718518 72.81266063 97.43576765 73.57861912 94.34985352 74.35009766 C94.10106445 73.78677734 93.85227539 73.22345703 93.59594727 72.64306641 C82.71290202 52.61689851 55.53542295 38.24624739 34.27612305 31.87207031 C-1.50785025 21.90636039 -44.0533538 30.80922649 -71.65014648 56.35009766 Z " fill="#E5E5E5" transform="translate(225.650146484375,28.64990234375)"/>
<path d="M0 0 C0 0.66 0 1.32 0 2 C1.32 2.33 2.64 2.66 4 3 C4 3.66 4 4.32 4 5 C4.721875 5.226875 5.44375 5.45375 6.1875 5.6875 C10.49589548 7.69808456 13.10721313 10.85611682 16 14.5625 C18.11878607 17.14477053 20.37202922 18.94890086 23 21 C25.60289064 23.47592036 27.95044008 25.9376961 30.1875 28.75 C31.80309077 31.07487388 31.80309077 31.07487388 34 32 C34 32.66 34 33.32 34 34 C34.66 34 35.32 34 36 34 C37.33333333 35.33333333 38.66666667 36.66666667 40 38 C40.66 38 41.32 38 42 38 C42.268125 37.401875 42.53625 36.80375 42.8125 36.1875 C43.99917406 34.00152146 45.09599113 32.58667406 47 31 C47.66 31 48.32 31 49 31 C49.2371875 30.43796875 49.474375 29.8759375 49.71875 29.296875 C51.28947697 26.48105958 53.21471464 24.52044584 55.5 22.25 C56.2940625 21.45078125 57.088125 20.6515625 57.90625 19.828125 C60 18 60 18 62 18 C62.268125 17.401875 62.53625 16.80375 62.8125 16.1875 C63.99917406 14.00152146 65.09599113 12.58667406 67 11 C67.66 11 68.32 11 69 11 C69.32871094 10.14535156 69.32871094 10.14535156 69.6640625 9.2734375 C76.33715287 -2.08252331 93.99919075 -8.03081403 105.7734375 -11.23828125 C126.73907645 -16.1877965 148.23790233 -12.94812051 166.7578125 -2.0390625 C174.36992229 2.74831257 180.38287765 7.98199726 186 15 C186.50144531 15.60328125 187.00289063 16.2065625 187.51953125 16.828125 C200.91025972 33.646032 205.77432465 53.79656028 204 75 C203.31356895 80.56620823 201.94437425 85.73875203 200 91 C199.608125 92.19625 199.21625 93.3925 198.8125 94.625 C193.76458261 107.85054355 184.91863976 119.15542499 174 128 C173.236875 128.680625 172.47375 129.36125 171.6875 130.0625 C165.45754977 134.55385947 158.68744526 138.12512701 151.3112793 140.29443359 C149.10522186 140.96787883 146.95980594 141.74231558 144.79296875 142.53125 C140.15246343 144.07887852 135.80843553 144.62411564 130.9375 144.8125 C129.70422974 144.86386108 129.70422974 144.86386108 128.44604492 144.91625977 C106.87330651 145.5631715 86.54266174 139.09838851 70.41796875 124.3671875 C69.95003906 123.91601562 69.48210937 123.46484375 69 123 C68.113125 122.154375 67.22625 121.30875 66.3125 120.4375 C64 118 64 118 62 115.4375 C59.88121393 112.85522947 57.62797078 111.05109914 55 109 C53.31237149 107.3545622 51.6459651 105.68711423 50 104 C49.154375 103.175 48.30875 102.35 47.4375 101.5 C45.10870056 99.11148775 43.03621503 96.639538 41 94 C36.29214443 95.56928519 33.74736233 99.07084684 30.6875 102.875 C28.08224541 106.08020281 25.0341061 108.6212976 21.89453125 111.2890625 C19.85742292 113.12876033 18.23850654 115.17303277 16.546875 117.328125 C13.57520213 120.53993306 10.04651921 123.1435285 6.62109375 125.8515625 C3.98421996 127.91041962 3.98421996 127.91041962 1.91015625 130.2734375 C0 132 0 132 -4 132 C-4 132.66 -4 133.32 -4 134 C-14.67020221 141.14386757 -28.24167111 144.7081428 -41 145 C-41.70640625 145.03867187 -42.4128125 145.07734375 -43.140625 145.1171875 C-53.2503412 145.45417804 -63.74157152 144.12979694 -73 140 C-73.78632813 139.71253906 -74.57265625 139.42507813 -75.3828125 139.12890625 C-81.56054011 136.85240418 -86.68707316 133.86481862 -92 130 C-93.07121094 129.23623047 -93.07121094 129.23623047 -94.1640625 128.45703125 C-104.26172539 121.10124311 -104.26172539 121.10124311 -105.8125 116.6875 C-105.874375 116.130625 -105.93625 115.57375 -106 115 C-106.66 115 -107.32 115 -108 115 C-121.44605328 100.32139184 -125.03083785 79.5129533 -124.3671875 60.35546875 C-123.46980709 44.66803293 -117.81405256 32.48258954 -110 19 C-109.34 19 -108.68 19 -108 19 C-107.59394531 18.12408203 -107.59394531 18.12408203 -107.1796875 17.23046875 C-100.6925763 4.96510286 -85.97376144 -4.4263634 -73.09277344 -8.62109375 C-68.76654369 -9.90948918 -64.4017855 -10.99842687 -60 -12 C-59.21753906 -12.19207031 -58.43507813 -12.38414062 -57.62890625 -12.58203125 C-36.79817975 -15.8939001 -18.0300304 -10.02221 0 0 Z M-79.44921875 41.7421875 C-85.49455276 50.49249077 -87.16356573 61.58079778 -86 72 C-84.26092843 80.81957723 -81.20870765 87.49806797 -75 94 C-74.10474609 94.95519531 -74.10474609 94.95519531 -73.19140625 95.9296875 C-65.23571081 103.63728433 -56.32687955 106.46880044 -45.4375 106.5625 C-25.43492939 106.23365844 -14.67740515 93.9807997 -1.4375 80.5625 C-0.13002733 79.24497609 1.1779118 77.92791491 2.48632812 76.61132812 C5.66295477 73.41286123 8.83320454 70.2081998 12 67 C10.25364969 63.21090048 7.99068175 60.91947504 5 58 C4.01 56.7315625 4.01 56.7315625 3 55.4375 C0.88121393 52.85522947 -1.37202922 51.05109914 -4 49 C-6.48072793 46.58129027 -8.89558964 44.10723227 -11.3125 41.625 C-21.39111296 31.78077338 -30.55126018 25.03000171 -45.1875 24.6875 C-58.54411034 25.159162 -70.86779932 31.42597977 -79.44921875 41.7421875 Z M98 35 C97.49339844 36.06927734 97.49339844 36.06927734 96.9765625 37.16015625 C96.65429688 37.76730469 96.33203125 38.37445313 96 39 C94.67791472 39.37547222 93.34295418 39.70783058 92 40 C90.51678836 41.37447777 90.51678836 41.37447777 89.25 43.125 C86.41840953 46.62326873 83.29619939 49.46261459 79.8828125 52.3828125 C75.1108358 56.48156427 71.5384926 60.84391078 68 66 C69.0828125 67.051875 69.0828125 67.051875 70.1875 68.125 C72.14838462 70.06372773 73.87041629 72.0744638 75.5625 74.25 C78.06652577 77.07505472 78.57921508 77.29225139 82 78 C83 79.8125 83 79.8125 84 82 C85.91666921 84.25065102 85.91666921 84.25065102 88 86 C88.66 86 89.32 86 90 86 C90.226875 86.556875 90.45375 87.11375 90.6875 87.6875 C92.36718835 90.6469509 94.54133285 92.66126784 97 95 C97.53625 95.5775 98.0725 96.155 98.625 96.75 C100.09616618 98.25659086 100.09616618 98.25659086 103 99 C103.43441406 99.47050781 103.86882812 99.94101562 104.31640625 100.42578125 C109.32730292 105.11114403 118.37181992 106.26170325 125 106.5 C137.05810856 106.00620691 146.34214936 101.73249022 154.7421875 93.23828125 C161.8106293 85.41376234 166.82723137 75.17670416 166.35546875 64.37109375 C165.14000741 56.2635659 163.5897679 48.21556734 158 42 C157.47019531 41.33097656 156.94039063 40.66195312 156.39453125 39.97265625 C148.96252269 30.99919407 140.65637414 26.18539398 129 25 C117.41121404 24.06036871 106.63657289 26.99998726 98 35 Z " fill="#5B6873" transform="translate(270,176)"/>
<path d="M0 0 C4.15571692 3.43840743 7.63565462 7.29660481 11 11.5 C11.50144531 12.10328125 12.00289062 12.7065625 12.51953125 13.328125 C25.91025972 30.146032 30.77432465 50.29656028 29 71.5 C28.31356895 77.06620823 26.94437425 82.23875203 25 87.5 C24.608125 88.69625 24.21625 89.8925 23.8125 91.125 C18.76458261 104.35054355 9.91863976 115.65542499 -1 124.5 C-1.763125 125.180625 -2.52625 125.86125 -3.3125 126.5625 C-9.54245023 131.05385947 -16.31255474 134.62512701 -23.6887207 136.79443359 C-25.89477814 137.46787883 -28.04019406 138.24231558 -30.20703125 139.03125 C-34.84753657 140.57887852 -39.19156447 141.12411564 -44.0625 141.3125 C-45.29577026 141.36386108 -45.29577026 141.36386108 -46.55395508 141.41625977 C-68.12669349 142.0631715 -88.45733826 135.59838851 -104.58203125 120.8671875 C-105.04996094 120.41601562 -105.51789063 119.96484375 -106 119.5 C-106.886875 118.654375 -107.77375 117.80875 -108.6875 116.9375 C-111 114.5 -111 114.5 -113 111.9375 C-115.11878607 109.35522947 -117.37202922 107.55109914 -120 105.5 C-124.17615428 101.82100694 -125.8389548 98.57375828 -128 93.5 C-129.99665314 91.81461399 -129.99665314 91.81461399 -132 90.5 C-133.92230885 87.42478942 -134.25588449 85.03767163 -134.2746582 81.44360352 C-134.28419022 80.43898575 -134.29372223 79.43436798 -134.30354309 78.39930725 C-134.30263168 77.32007492 -134.30172028 76.24084259 -134.30078125 75.12890625 C-134.30506638 74.01442612 -134.3093515 72.89994598 -134.31376648 71.75169373 C-134.31950753 69.39558593 -134.32001171 67.03946041 -134.31567383 64.68334961 C-134.312515 61.07960759 -134.33597291 57.47668733 -134.36132812 53.87304688 C-134.36360124 51.58333437 -134.36430456 49.29361966 -134.36328125 47.00390625 C-134.372491 45.92669815 -134.38170074 44.84949005 -134.39118958 43.73963928 C-134.35124866 37.27750923 -133.7292474 33.66592698 -129.4375 28.6875 C-128 27.5 -128 27.5 -126 27.5 C-125.7628125 26.93796875 -125.525625 26.3759375 -125.28125 25.796875 C-123.71052303 22.98105958 -121.78528536 21.02044584 -119.5 18.75 C-118.7059375 17.95078125 -117.911875 17.1515625 -117.09375 16.328125 C-115 14.5 -115 14.5 -113 14.5 C-112.731875 13.901875 -112.46375 13.30375 -112.1875 12.6875 C-111.00082594 10.50152146 -109.90400887 9.08667406 -108 7.5 C-107.34 7.5 -106.68 7.5 -106 7.5 C-105.78085937 6.93023437 -105.56171875 6.36046875 -105.3359375 5.7734375 C-98.66284713 -5.58252331 -81.00080925 -11.53081403 -69.2265625 -14.73828125 C-44.62671758 -20.54575069 -20.19091112 -14.88824759 0 0 Z M-77 31.5 C-77.50660156 32.56927734 -77.50660156 32.56927734 -78.0234375 33.66015625 C-78.34570312 34.26730469 -78.66796875 34.87445313 -79 35.5 C-80.32208528 35.87547222 -81.65704582 36.20783058 -83 36.5 C-84.48321164 37.87447777 -84.48321164 37.87447777 -85.75 39.625 C-88.58159047 43.12326873 -91.70380061 45.96261459 -95.1171875 48.8828125 C-99.8891642 52.98156427 -103.4615074 57.34391078 -107 62.5 C-105.9171875 63.551875 -105.9171875 63.551875 -104.8125 64.625 C-102.85161538 66.56372773 -101.12958371 68.5744638 -99.4375 70.75 C-96.93347423 73.57505472 -96.42078492 73.79225139 -93 74.5 C-92 76.3125 -92 76.3125 -91 78.5 C-89.08333079 80.75065102 -89.08333079 80.75065102 -87 82.5 C-86.34 82.5 -85.68 82.5 -85 82.5 C-84.773125 83.056875 -84.54625 83.61375 -84.3125 84.1875 C-82.63281165 87.1469509 -80.45866715 89.16126784 -78 91.5 C-77.46375 92.0775 -76.9275 92.655 -76.375 93.25 C-74.90383382 94.75659086 -74.90383382 94.75659086 -72 95.5 C-71.56558594 95.97050781 -71.13117188 96.44101562 -70.68359375 96.92578125 C-65.67269708 101.61114403 -56.62818008 102.76170325 -50 103 C-37.94189144 102.50620691 -28.65785064 98.23249022 -20.2578125 89.73828125 C-13.1893707 81.91376234 -8.17276863 71.67670416 -8.64453125 60.87109375 C-9.85999259 52.7635659 -11.4102321 44.71556734 -17 38.5 C-17.52980469 37.83097656 -18.05960937 37.16195312 -18.60546875 36.47265625 C-26.03747731 27.49919407 -34.34362586 22.68539398 -46 21.5 C-57.58878596 20.56036871 -68.36342711 23.49998726 -77 31.5 Z " fill="#273847" transform="translate(445,179.5)"/>
<path d="M0 0 C0.87914062 -0.00128906 1.75828125 -0.00257813 2.6640625 -0.00390625 C4.03691406 0.00189453 4.03691406 0.00189453 5.4375 0.0078125 C6.35273438 0.00394531 7.26796875 0.00007812 8.2109375 -0.00390625 C9.09007812 -0.00261719 9.96921875 -0.00132812 10.875 0 C11.67808594 0.00112793 12.48117187 0.00225586 13.30859375 0.00341797 C15.4375 0.1328125 15.4375 0.1328125 18.4375 1.1328125 C19.625 4.1953125 19.625 4.1953125 20.4375 7.1328125 C21.22125 7.1946875 22.005 7.2565625 22.8125 7.3203125 C25.4375 8.1328125 25.4375 8.1328125 26.75 10.3828125 C27.43333213 13.11614103 27.67105199 15.33018858 27.4375 18.1328125 C26.9425 18.6278125 26.9425 18.6278125 26.4375 19.1328125 C26.27083333 21.6328125 26.27083333 21.6328125 26.4375 24.1328125 C26.7675 24.4628125 27.0975 24.7928125 27.4375 25.1328125 C26.73982558 31.52816134 26.73982558 31.52816134 25.4375 34.1328125 C24.261875 34.225625 24.261875 34.225625 23.0625 34.3203125 C22.19625 34.5884375 21.33 34.8565625 20.4375 35.1328125 C20.004375 36.2878125 19.57125 37.4428125 19.125 38.6328125 C18.568125 39.7878125 18.01125 40.9428125 17.4375 42.1328125 C14.42506753 42.93971405 12.48012125 43.15276411 9.4375 43.1328125 C8.52742188 43.16890625 7.61734375 43.205 6.6796875 43.2421875 C-3.33920871 43.51518195 -3.33920871 43.51518195 -7.5625 41.1328125 C-8.9375 38.0078125 -8.9375 38.0078125 -9.5625 35.1328125 C-10.34625 35.0709375 -11.13 35.0090625 -11.9375 34.9453125 C-14.5625 34.1328125 -14.5625 34.1328125 -15.9375 32.1953125 C-16.70610954 28.42912574 -16.27588224 25.27883938 -15.77734375 21.4921875 C-15.43236794 19.04976487 -15.43236794 19.04976487 -16.1875 16.3828125 C-16.77236998 12.87359261 -15.48846764 11.02176396 -13.5625 8.1328125 C-11.89857955 7.45932089 -10.23217972 6.7918966 -8.5625 6.1328125 C-7.66863836 3.58505944 -7.66863836 3.58505944 -7.5625 1.1328125 C-4.72267118 0.18620289 -2.94394671 0.00413476 0 0 Z M-0.5625 16.1328125 C-1.6608915 19.09618122 -1.79118738 21.99254426 -1.5625 25.1328125 C-0.18533334 27.84388963 -0.18533334 27.84388963 2.4375 29.1328125 C6.07382575 29.73886679 7.72064769 29.60442586 10.8125 27.5703125 C13.02396281 24.25311828 12.86410463 22.04335491 12.4375 18.1328125 C10.70080048 14.79206153 10.70080048 14.79206153 7.0625 14.3203125 C3.46181418 14.13407013 2.29648565 14.13152255 -0.5625 16.1328125 Z " fill="#F77330" transform="translate(387.5625,219.8671875)"/>
<path d="M0 0 C1.32 0.33 2.64 0.66 4 1 C5.125 5.75 5.125 5.75 4 8 C5.093125 8.04125 6.18625 8.0825 7.3125 8.125 C13.12419045 8.83323468 18.26103963 11.65191201 23 15 C23.495 16.485 23.495 16.485 24 18 C21.11908213 21.17239897 18.46469675 22.99644695 14.5625 24.75 C13.63566406 25.17796875 12.70882812 25.6059375 11.75390625 26.046875 C8.95024808 27.0172191 6.94068041 27.26969203 4 27 C3 26 3 26 2.625 23.625 C2.74875 22.75875 2.8725 21.8925 3 21 C5.5 19.1875 5.5 19.1875 8 18 C6.62514468 16.45833358 6.62514468 16.45833358 5 15 C4.34 15 3.68 15 3 15 C0.42383482 21.2638737 -1.94235079 27.54646385 -4 34 C-5.98 34 -7.96 34 -10 34 C-11.125 29.25 -11.125 29.25 -10 27 C-11.3921875 26.938125 -11.3921875 26.938125 -12.8125 26.875 C-18.3721381 26.09870556 -23.44184866 23.17020214 -28 20 C-28.33 19.01 -28.66 18.02 -29 17 C-24.88147473 12.05776967 -20.18285056 9.72926602 -14 8 C-11.1875 7.89453125 -11.1875 7.89453125 -9 8 C-8.1875 10.1875 -8.1875 10.1875 -8 13 C-10.4375 15.8125 -10.4375 15.8125 -13 18 C-11.68 18.99 -10.36 19.98 -9 21 C-6.82032703 17.92864264 -5.75521721 15.27580692 -5.0625 11.625 C-4.17344321 7.08853073 -2.47887606 3.88357249 0 0 Z " fill="#F1793E" transform="translate(229,224)"/>
<path d="M0 0 C2.33294775 -0.04241723 4.66702567 -0.04092937 7 0 C8 1 8 1 8.11352539 2.76586914 C8.10828857 3.51473389 8.10305176 4.26359863 8.09765625 5.03515625 C8.09443359 5.84404297 8.09121094 6.65292969 8.08789062 7.48632812 C8.07951172 8.33646484 8.07113281 9.18660156 8.0625 10.0625 C8.05798828 10.91650391 8.05347656 11.77050781 8.04882812 12.65039062 C8.03700373 14.76695663 8.01906769 16.88348685 8 19 C7.34 19.33 6.68 19.66 6 20 C6 20.66 6 21.32 6 22 C4.35 22 2.7 22 1 22 C0.9175 23.11375 0.835 24.2275 0.75 25.375 C0 29 0 29 -1.5390625 30.21484375 C-5.05421225 31.33634391 -8.4771272 31.24949426 -12.125 31.1875 C-13.21748047 31.1865332 -13.21748047 31.1865332 -14.33203125 31.18554688 C-19.71851504 31.14074248 -19.71851504 31.14074248 -22 30 C-22.4140625 27.27734375 -22.4140625 27.27734375 -22.625 23.9375 C-22.69976562 22.83277344 -22.77453125 21.72804687 -22.8515625 20.58984375 C-22.90054687 19.73519531 -22.94953125 18.88054687 -23 18 C-21.515 18.99 -21.515 18.99 -20 20 C-19.67 19.67 -19.34 19.34 -19 19 C-16.47804033 18.60056824 -13.97036344 18.24920152 -11.4375 17.9375 C-10.72658203 17.84662109 -10.01566406 17.75574219 -9.28320312 17.66210938 C-7.52261597 17.43760497 -5.76136522 17.21831603 -4 17 C-4.02320313 16.18015625 -4.04640625 15.3603125 -4.0703125 14.515625 C-4.09738281 12.89914063 -4.09738281 12.89914063 -4.125 11.25 C-4.14820313 10.18265625 -4.17140625 9.1153125 -4.1953125 8.015625 C-4.00487687 5.07529894 -3.52670104 3.47638122 -2 1 C-1.34 1.33 -0.68 1.66 0 2 C0 1.34 0 0.68 0 0 Z " fill="#FB671E" transform="translate(405,230)"/>
<path d="M0 0 C0.33 1.65 0.66 3.3 1 5 C-3.625 9 -3.625 9 -7 9 C-7 9.99 -7 10.98 -7 12 C-6.34 12 -5.68 12 -5 12 C-5 12.99 -5 13.98 -5 15 C-6.65 15 -8.3 15 -10 15 C-10.33 14.34 -10.66 13.68 -11 13 C-13.52733235 12.34444881 -13.52733235 12.34444881 -16 12 C-16.33 10.02 -16.66 8.04 -17 6 C-11.69870306 2.6264474 -6.46363667 -0.58760333 0 0 Z " fill="#F96821" transform="translate(220,232)"/>
<path d="M0 0 C1 2 2 4 3 6 C4.65 6 6.3 6 8 6 C8 6.99 8 7.98 8 9 C9.65 9 11.3 9 13 9 C13 8.01 13 7.02 13 6 C12.34 6 11.68 6 11 6 C11 5.34 11 4.68 11 4 C15.75 4.75 15.75 4.75 18 7 C18.99 6.01 19.98 5.02 21 4 C20.125 10.875 20.125 10.875 19 12 C18.95919217 13.99958364 18.95745644 16.00045254 19 18 C19.99 18.33 20.98 18.66 22 19 C22.66 17.68 23.32 16.36 24 15 C23.67 16.65 23.34 18.3 23 20 C21.02 20 19.04 20 17 20 C15.875 15.25 15.875 15.25 17 13 C16.071875 12.95875 15.14375 12.9175 14.1875 12.875 C8.6278619 12.09870556 3.55815134 9.17020214 -1 6 C-1.33 5.01 -1.66 4.02 -2 3 C-1.34 2.01 -0.68 1.02 0 0 Z " fill="#F2814D" transform="translate(202,238)"/>
<path d="M0 0 C4.8404451 1.41671564 8.78490561 3.27258598 13 6 C13.33 6.99 13.66 7.98 14 9 C11.11908213 12.17239897 8.46469675 13.99644695 4.5625 15.75 C3.63566406 16.17796875 2.70882812 16.6059375 1.75390625 17.046875 C-1.04975192 18.0172191 -3.05931959 18.26969203 -6 18 C-7 17 -7 17 -7.0625 14.4375 C-7.041875 13.633125 -7.02125 12.82875 -7 12 C-0.25 8 -0.25 8 2 8 C2.33 7.34 2.66 6.68 3 6 C2.50168276 9.68754757 1.89932357 11.60490662 -1 14 C0.32 14 1.64 14 3 14 C3 13.34 3 12.68 3 12 C5.64 11.67 8.28 11.34 11 11 C11 9.68 11 8.36 11 7 C8.525 6.505 8.525 6.505 6 6 C6 5.34 6 4.68 6 4 C5.38125 3.896875 4.7625 3.79375 4.125 3.6875 C2 3 2 3 0 0 Z " fill="#EF7F49" transform="translate(239,233)"/>
<path d="M0 0 C2.8125 -0.1875 2.8125 -0.1875 6 0 C7.01117213 0.98870164 8.00975541 1.99033885 9 3 C11.26027345 4.2048149 11.26027345 4.2048149 13.6875 5.1875 C14.49574219 5.53167969 15.30398437 5.87585938 16.13671875 6.23046875 C16.75160156 6.48441406 17.36648437 6.73835937 18 7 C17.625 8.9375 17.625 8.9375 17 11 C14.29120665 12.35439668 11.99066732 12.06501451 9 12 C9 12.66 9 13.32 9 14 C7.68 14 6.36 14 5 14 C5.33 13.01 5.66 12.02 6 11 C6.66 11 7.32 11 8 11 C8 10.01 8 9.02 8 8 C7.34 8 6.68 8 6 8 C5.67 6.68 5.34 5.36 5 4 C3.35 3.67 1.7 3.34 0 3 C0 2.01 0 1.02 0 0 Z " fill="#F76824" transform="translate(233,233)"/>
<path d="M0 0 C0.66 0.33 1.32 0.66 2 1 C1.125 7.75 1.125 7.75 0 10 C-1.175625 10.0928125 -1.175625 10.0928125 -2.375 10.1875 C-3.24125 10.455625 -4.1075 10.72375 -5 11 C-5.433125 12.155 -5.86625 13.31 -6.3125 14.5 C-6.869375 15.655 -7.42625 16.81 -8 18 C-11.01243247 18.80690155 -12.95737875 19.01995161 -16 19 C-16.91007812 19.03609375 -17.82015625 19.0721875 -18.7578125 19.109375 C-28.95222087 19.38715179 -28.95222087 19.38715179 -33 17 C-34.375 13.375 -34.375 13.375 -35 10 C-33.0625 10.8125 -33.0625 10.8125 -31 12 C-30.67 12.99 -30.34 13.98 -30 15 C-26.87238992 16.56380504 -23.55397484 16.14320695 -20.125 16.125 C-19.40441406 16.12886719 -18.68382812 16.13273437 -17.94140625 16.13671875 C-14.49184989 16.13036598 -11.29559809 16.08702974 -8 15 C-7.67 12.69 -7.34 10.38 -7 8 C-5.35 8 -3.7 8 -2 8 C-2.495 6.515 -2.495 6.515 -3 5 C-2.01 5 -1.02 5 0 5 C0 3.35 0 1.7 0 0 Z " fill="#EA9669" transform="translate(413,244)"/>
<path d="M0 0 C4.6404822 -0.1473169 8.63232165 -0.13258949 13.14453125 0.97265625 C18.34021042 2.1874404 23.43139329 2.406963 28.75 2.5625 C30.57824526 2.62275773 32.40638127 2.68644773 34.234375 2.75390625 C35.03069336 2.77783447 35.82701172 2.8017627 36.64746094 2.82641602 C39.16196449 3.01195068 41.53963521 3.45855609 44 4 C44 4.33 44 4.66 44 5 C28.85244347 6.21839042 14.41258641 6.66208752 0 1 C0 0.67 0 0.34 0 0 Z " fill="#4F5B68" transform="translate(366,315)"/>
<path d="M0 0 C2.0625 0.4375 2.0625 0.4375 4 1 C5.125 5.75 5.125 5.75 4 8 C5.65 8 7.3 8 9 8 C7.68 8.99 6.36 9.98 5 11 C5.639375 11.2475 6.27875 11.495 6.9375 11.75 C9 13 9 13 9.75 15.125 C9.87375 16.053125 9.87375 16.053125 10 17 C7.69 16.34 5.38 15.68 3 15 C1.95994298 11.61981469 1.91995518 8.5219721 2 5 C1.01 5 0.02 5 -1 5 C-1 5.66 -1 6.32 -1 7 C-1.66 7 -2.32 7 -3 7 C-1.125 1.125 -1.125 1.125 0 0 Z " fill="#E88456" transform="translate(229,224)"/>
<path d="M0 0 C0 3.54823932 -0.67734388 4.41927097 -3 7 C-3.99 7.33 -4.98 7.66 -6 8 C-6.73323796 10.01508358 -6.73323796 10.01508358 -7 12 C-7.639375 12.12375 -8.27875 12.2475 -8.9375 12.375 C-9.618125 12.58125 -10.29875 12.7875 -11 13 C-12.02860761 14.95524751 -12.02860761 14.95524751 -12.6875 16.9375 C-14.53783937 19.84517616 -16.89947486 20.65194559 -20 22 C-19.34 20.35 -18.68 18.7 -18 17 C-17.34 17 -16.68 17 -16 17 C-15.60361328 16.13181641 -15.60361328 16.13181641 -15.19921875 15.24609375 C-11.69353226 8.68006856 -6.13723532 4.00799041 0 0 Z " fill="#7A8288" transform="translate(178,178)"/>
<path d="M0 0 C0.33 1.65 0.66 3.3 1 5 C-3.75 9 -3.75 9 -6 9 C-6 7.02 -6 5.04 -6 3 C-6.99 3.66 -7.98 4.32 -9 5 C-11.32387947 5.39387788 -13.65793749 5.73486085 -16 6 C-14.61769577 3.23539154 -13.08867771 3.00879139 -10.25 1.875 C-9.38890625 1.52179688 -8.5278125 1.16859375 -7.640625 0.8046875 C-4.94136502 -0.01786806 -2.80298055 -0.15123996 0 0 Z " fill="#EF7F43" transform="translate(220,232)"/>
<path d="M0 0 C2 3 2 3 2 7 C1.34 7 0.68 7 0 7 C0.01160156 7.62648437 0.02320313 8.25296875 0.03515625 8.8984375 C0.04417969 9.71570313 0.05320313 10.53296875 0.0625 11.375 C0.07410156 12.18710938 0.08570313 12.99921875 0.09765625 13.8359375 C0 16 0 16 -1 18 C-2.32 17.67 -3.64 17.34 -5 17 C-5.25 11.375 -5.25 11.375 -3 8 C-2.61500109 6.34450469 -2.27206865 4.6777567 -2 3 C-1.34 3 -0.68 3 0 3 C0 2.01 0 1.02 0 0 Z " fill="#F86922" transform="translate(225,239)"/>
<path d="M0 0 C0 4.95 0 9.9 0 15 C-1.32 15.33 -2.64 15.66 -4 16 C-3.67 15.01 -3.34 14.02 -3 13 C-2.6946182 8.345203 -2.6946182 8.345203 -4 4 C-7.81984796 3.22188282 -10.26840331 2.75613444 -14 4 C-14.66 4.99 -15.32 5.98 -16 7 C-16 5.35 -16 3.7 -16 2 C-13.70858188 1.66496236 -11.41685737 1.33201958 -9.125 1 C-7.21074219 0.7215625 -7.21074219 0.7215625 -5.2578125 0.4375 C-2 0 -2 0 0 0 Z " fill="#F38B58" transform="translate(402,232)"/>
<path d="M0 0 C1 2 1 2 0.375 4.5 C-1 7 -1 7 -3.4375 7.9375 C-6.99018631 9.41056505 -7.35502019 11.63851953 -9 15 C-11.125 15.75 -11.125 15.75 -13 16 C-13.33 16.66 -13.66 17.32 -14 18 C-14.66 18 -15.32 18 -16 18 C-14.71480435 15.13302508 -13.42870746 13.02392288 -11 11 C-10.34 11 -9.68 11 -9 11 C-8.74476563 10.41734375 -8.48953125 9.8346875 -8.2265625 9.234375 C-6.88258913 6.78611777 -5.38189704 5.18256752 -3.375 3.25 C-2.74335938 2.63640625 -2.11171875 2.0228125 -1.4609375 1.390625 C-0.73777344 0.70226562 -0.73777344 0.70226562 0 0 Z " fill="#606973" transform="translate(328,196)"/>
<path d="M0 0 C0.66 0.33 1.32 0.66 2 1 C1.125 7.75 1.125 7.75 0 10 C-0.804375 10.103125 -1.60875 10.20625 -2.4375 10.3125 C-3.7059375 10.6528125 -3.7059375 10.6528125 -5 11 C-5.495 12.2375 -5.495 12.2375 -6 13.5 C-6.495 14.7375 -6.495 14.7375 -7 16 C-9.625 16.8125 -9.625 16.8125 -12 17 C-11.67 16.34 -11.34 15.68 -11 15 C-10.01 15 -9.02 15 -8 15 C-7.67 12.69 -7.34 10.38 -7 8 C-5.35 8 -3.7 8 -2 8 C-2.33 7.01 -2.66 6.02 -3 5 C-2.01 5 -1.02 5 0 5 C0 3.35 0 1.7 0 0 Z " fill="#EC7E49" transform="translate(413,244)"/>
<path d="M0 0 C1.485 0.99 1.485 0.99 3 2 C3.33 1.67 3.66 1.34 4 1 C5.32 1 6.64 1 8 1 C7.125 5.75 7.125 5.75 6 8 C5.34 8 4.68 8 4 8 C3.67 8.99 3.34 9.98 3 11 C2.34 11 1.68 11 1 11 C0.67 7.37 0.34 3.74 0 0 Z " fill="#FC6617" transform="translate(382,248)"/>
<path d="M0 0 C-3.67903471 3.27330939 -6.84697803 4.87304573 -11.5625 6.25 C-12.67753906 6.58515625 -13.79257812 6.9203125 -14.94140625 7.265625 C-18 8 -18 8 -22 8 C-22 7.34 -22 6.68 -22 6 C-19.29120665 4.64560332 -16.99066732 4.93498549 -14 5 C-13.67 4.01 -13.34 3.02 -13 2 C-12.05125 1.855625 -11.1025 1.71125 -10.125 1.5625 C-1.26020408 -0.03316327 -1.26020408 -0.03316327 0 0 Z " fill="#5D6972" transform="translate(432,311)"/>
<path d="M0 0 C0.33 0 0.66 0 1 0 C1.66 2.31 2.32 4.62 3 7 C6.465 6.505 6.465 6.505 10 6 C10.33 8.97 10.66 11.94 11 15 C10.649375 14.360625 10.29875 13.72125 9.9375 13.0625 C7.22815794 10.17836168 4.84141089 10.2899178 1 10 C-0.83691257 6.21812119 -1.15837626 4.05431692 0 0 Z " fill="#F0783E" transform="translate(372,244)"/>
<path d="M0 0 C0.99 0 1.98 0 3 0 C3 0.66 3 1.32 3 2 C4.32 2 5.64 2 7 2 C6.34 3.65 5.68 5.3 5 7 C2.03 7 -0.94 7 -4 7 C-3.525625 6.21625 -3.05125 5.4325 -2.5625 4.625 C-1.66101977 3.11051322 -0.78820515 1.5764103 0 0 Z " fill="#FD6619" transform="translate(393,252)"/>
<path d="M0 0 C0.61875 0.185625 1.2375 0.37125 1.875 0.5625 C4.04160178 1.23686176 4.04160178 1.23686176 6 0 C8 2 8 2 8 5 C9.32 5.66 10.64 6.32 12 7 C5.80481527 6.58411954 0.73310689 5.39748106 -5 3 C-4.360625 2.87625 -3.72125 2.7525 -3.0625 2.625 C-2.0415625 2.315625 -2.0415625 2.315625 -1 2 C-0.67 1.34 -0.34 0.68 0 0 Z " fill="#838A91" transform="translate(202,313)"/>
<path d="M0 0 C4.8404451 1.41671564 8.78490561 3.27258598 13 6 C13.33 6.99 13.66 7.98 14 9 C12.68 10.32 11.36 11.64 10 13 C9.01 12.67 8.02 12.34 7 12 C8.32 11.67 9.64 11.34 11 11 C11 9.68 11 8.36 11 7 C9.35 6.67 7.7 6.34 6 6 C6 5.34 6 4.68 6 4 C5.38125 3.896875 4.7625 3.79375 4.125 3.6875 C2 3 2 3 0 0 Z " fill="#EA9B74" transform="translate(239,233)"/>
<path d="M0 0 C-3.70277613 4.1141957 -7.5534367 6.06093736 -13 7 C-13.66 6.67 -14.32 6.34 -15 6 C-10.83385363 2.52821136 -5.41664933 -1.80554978 0 0 Z " fill="#707B84" transform="translate(194,171)"/>
<path d="M0 0 C7.26 0.33 14.52 0.66 22 1 C22 1.33 22 1.66 22 2 C20.35451172 2.09087891 20.35451172 2.09087891 18.67578125 2.18359375 C17.22134346 2.26804498 15.76691695 2.35269066 14.3125 2.4375 C13.59126953 2.47681641 12.87003906 2.51613281 12.12695312 2.55664062 C8.33292718 2.78185678 4.71348508 3.12839305 1 4 C0.67 2.68 0.34 1.36 0 0 Z " fill="#8A939C" transform="translate(209,281)"/>
<path d="M0 0 C0.33 0.66 0.66 1.32 1 2 C1.66 2 2.32 2 3 2 C1.90931332 5.77545388 1.0916909 8.47043472 -2 11 C-1.9071875 9.824375 -1.9071875 9.824375 -1.8125 8.625 C-1.874375 7.75875 -1.93625 6.8925 -2 6 C-2.99 5.34 -3.98 4.68 -5 4 C-3 1 -3 1 0 0 Z " fill="#4B5866" transform="translate(463,273)"/>
<path d="M0 0 C2.475 0.495 2.475 0.495 5 1 C5 5.29 5 9.58 5 14 C4.34 14 3.68 14 3 14 C2.92652344 12.82630859 2.92652344 12.82630859 2.8515625 11.62890625 C2.77679688 10.61699219 2.70203125 9.60507813 2.625 8.5625 C2.55539062 7.55316406 2.48578125 6.54382813 2.4140625 5.50390625 C2.27742188 4.67761719 2.14078125 3.85132813 2 3 C1.34 2.67 0.68 2.34 0 2 C0 1.34 0 0.68 0 0 Z " fill="#F47233" transform="translate(408,230)"/>
<path d="M0 0 C0 3.54823932 -0.67734388 4.41927097 -3 7 C-3.99 7.33 -4.98 7.66 -6 8 C-6.73323796 10.01508358 -6.73323796 10.01508358 -7 12 C-8.32 11.01 -9.64 10.02 -11 9 C-9.73113036 7.87278564 -8.45982438 6.74831342 -7.1875 5.625 C-6.47980469 4.99851563 -5.77210938 4.37203125 -5.04296875 3.7265625 C-3 2 -3 2 0 0 Z " fill="#788187" transform="translate(178,178)"/>
<path d="M0 0 C1 2 2 4 3 6 C4.65 6 6.3 6 8 6 C8 7.32 8 8.64 8 10 C8.66 10.33 9.32 10.66 10 11 C6.78147169 10.36934243 4.49198931 9.21979305 1.75 7.4375 C1.04359375 6.98246094 0.3371875 6.52742187 -0.390625 6.05859375 C-1.18726563 5.53458984 -1.18726563 5.53458984 -2 5 C-1.34 3.35 -0.68 1.7 0 0 Z " fill="#EF966D" transform="translate(202,238)"/>
<path d="M0 0 C0.99 0.33 1.98 0.66 3 1 C0.68462045 4.72114571 -1.28579473 7.61229661 -5 10 C-4.67 7.69 -4.34 5.38 -4 3 C-3.34 3 -2.68 3 -2 3 C-2 2.34 -2 1.68 -2 1 C-1.34 0.67 -0.68 0.34 0 0 Z " fill="#5A646D" transform="translate(454,289)"/>
<path d="M0 0 C2.875 0.75 2.875 0.75 6 2 C7.0625 3.9375 7.0625 3.9375 8 6 C10.53188648 7.75322937 10.53188648 7.75322937 13 9 C12.67 9.99 12.34 10.98 12 12 C1.88235294 3.76470588 1.88235294 3.76470588 0 0 Z " fill="#7F8990" transform="translate(319,278)"/>
<path d="M0 0 C0.33 1.32 0.66 2.64 1 4 C-0.32 4.99 -1.64 5.98 -3 7 C-3.66 6.67 -4.32 6.34 -5 6 C-5 4.68 -5 3.36 -5 2 C-5.99 1.67 -6.98 1.34 -8 1 C-5.10765685 0.17361624 -3.11257569 0 0 0 Z " fill="#374652" transform="translate(409,280)"/>
<path d="M0 0 C1.98 0 3.96 0 6 0 C4.68 0.99 3.36 1.98 2 3 C2.639375 3.2475 3.27875 3.495 3.9375 3.75 C6 5 6 5 6.75 7.125 C6.8325 7.74375 6.915 8.3625 7 9 C4.69 8.34 2.38 7.68 0 7 C-0.93423645 3.98968256 -1.04449911 3.13349732 0 0 Z " fill="#F29970" transform="translate(232,232)"/>
<path d="M0 0 C2.64 0.33 5.28 0.66 8 1 C8.33 2.98 8.66 4.96 9 7 C9.99 7.33 10.98 7.66 12 8 C12.66 6.68 13.32 5.36 14 4 C13.67 5.65 13.34 7.3 13 9 C11.02 9 9.04 9 7 9 C5.875 4.25 5.875 4.25 7 2 C4.69 1.67 2.38 1.34 0 1 C0 0.67 0 0.34 0 0 Z " fill="#E89E7E" transform="translate(212,249)"/>
<path d="M0 0 C4.85963179 0.60745397 8.7405518 2.72758967 13 5 C13 5.66 13 6.32 13 7 C7.92990529 6.52467862 4.02506742 3.95637706 0 1 C0 0.67 0 0.34 0 0 Z " fill="#737C89" transform="translate(353,308)"/>
<path d="M0 0 C3.48191452 1.88211596 6.03178994 3.5009599 8 7 C7.67 7.99 7.34 8.98 7 10 C4 8 4 8 3 5.9375 C2.10301684 3.64657009 2.10301684 3.64657009 -1 3 C-0.67 2.01 -0.34 1.02 0 0 Z " fill="#515B68" transform="translate(449,185)"/>
<path d="M0 0 C1.65 0 3.3 0 5 0 C5.33 1.65 5.66 3.3 6 5 C1.25 9 1.25 9 -1 9 C-0.67 7.68 -0.34 6.36 0 5 C1.32 5 2.64 5 4 5 C4 3.68 4 2.36 4 1 C2.68 0.67 1.36 0.34 0 0 Z " fill="#E7946B" transform="translate(215,232)"/>
<path d="M0 0 C1.41623216 -0.05447047 2.83308191 -0.09300508 4.25 -0.125 C5.03890625 -0.14820313 5.8278125 -0.17140625 6.640625 -0.1953125 C9.20731941 0.0171622 10.7916067 0.71345895 13 2 C13 2.66 13 3.32 13 4 C8.51474352 3.343621 4.33085971 2.29925791 0 1 C0 0.67 0 0.34 0 0 Z " fill="#7E8790" transform="translate(366,315)"/>
<path d="M0 0 C-1.61594832 2.04119788 -3.2856382 4.04072937 -5 6 C-5.66 6 -6.32 6 -7 6 C-7.66 4.35 -8.32 2.7 -9 1 C-5.8035914 -0.06546953 -3.34252724 -0.07427838 0 0 Z " fill="#869198" transform="translate(298,281)"/>
<path d="M0 0 C0.33 0 0.66 0 1 0 C1.3283194 5.5814298 -0.37969313 10.13371581 -3 15 C-3.33 13.35 -3.66 11.7 -4 10 C-3.34 10 -2.68 10 -2 10 C-2.33 7.69 -2.66 5.38 -3 3 C-2.01 3.33 -1.02 3.66 0 4 C0 2.68 0 1.36 0 0 Z " fill="#697178" transform="translate(471,256)"/>
<path d="M0 0 C0.99 0 1.98 0 3 0 C3.33 1.98 3.66 3.96 4 6 C3.01 6.495 3.01 6.495 2 7 C1.01 6.67 0.02 6.34 -1 6 C-0.67 4.02 -0.34 2.04 0 0 Z " fill="#FC661D" transform="translate(228,229)"/>
<path d="M0 0 C0.99 0 1.98 0 3 0 C3.33 0.99 3.66 1.98 4 3 C-0.75 7 -0.75 7 -3 7 C-1.125 1.125 -1.125 1.125 0 0 Z " fill="#505B65" transform="translate(445,297)"/>
<path d="M0 0 C3.37503669 1.1858237 5.64722731 2.27573689 8 5 C7.67 5.99 7.34 6.98 7 8 C1.125 3.375 1.125 3.375 0 0 Z " fill="#828992" transform="translate(311,269)"/>
<path d="M0 0 C0.66 0.66 1.32 1.32 2 2 C1.34 2 0.68 2 0 2 C0 2.66 0 3.32 0 4 C-1.32 4 -2.64 4 -4 4 C-4 4.66 -4 5.32 -4 6 C-5.32 6 -6.64 6 -8 6 C-7.67 5.01 -7.34 4.02 -7 3 C-3.4375 1.3125 -3.4375 1.3125 0 0 Z " fill="#FC6716" transform="translate(246,241)"/>
<path d="M0 0 C2.64 0.66 5.28 1.32 8 2 C5.61426621 3.89213369 3.92824652 5.02391783 1 6 C0.67 4.02 0.34 2.04 0 0 Z " fill="#4D5861" transform="translate(373,201)"/>
<path d="M0 0 C-1.24663331 0.50833591 -2.49749387 1.00631145 -3.75 1.5 C-4.44609375 1.7784375 -5.1421875 2.056875 -5.859375 2.34375 C-8 3 -8 3 -12 3 C-12 2.34 -12 1.68 -12 1 C-3.96428571 -1.27678571 -3.96428571 -1.27678571 0 0 Z " fill="#6E7A80" transform="translate(422,316)"/>
<path d="M0 0 C2.49361571 1.20381448 4.68143083 2.45428722 7 4 C7 4.66 7 5.32 7 6 C3.20411134 5.45773019 1.52788007 3.79872437 -1 1 C-0.67 0.67 -0.34 0.34 0 0 Z " fill="#7A838B" transform="translate(346,302)"/>
<path d="M0 0 C1.46726798 3.81489674 0.43336419 6.29011622 -1 10 C-1.66 10 -2.32 10 -3 10 C-3 7.69 -3 5.38 -3 3 C-2.01 3 -1.02 3 0 3 C0 2.01 0 1.02 0 0 Z " fill="#EC8B5A" transform="translate(228,243)"/>
<path d="M0 0 C3.68754757 0.49831724 5.60490662 1.10067643 8 4 C6.25 4.6875 6.25 4.6875 4 5 C1.75 3.6875 1.75 3.6875 0 2 C0 1.34 0 0.68 0 0 Z " fill="#788087" transform="translate(256,170)"/>
<path d="M0 0 C2.00047023 2.54605302 3.82572785 4.9664636 5 8 C4.67 8.99 4.34 9.98 4 11 C4 10.34 4 9.68 4 9 C3.01 8.67 2.02 8.34 1 8 C1.33 7.01 1.66 6.02 2 5 C1.34 5 0.68 5 0 5 C0 3.35 0 1.7 0 0 Z " fill="#687077" transform="translate(464,204)"/>
<path d="M0 0 C1.2077558 3.62326739 0.54311128 4.64146369 -1 8 C-1.99 7.01 -2.98 6.02 -4 5 C-3.34 4.67 -2.68 4.34 -2 4 C-0.86649466 1.98330173 -0.86649466 1.98330173 0 0 Z " fill="#223241" transform="translate(436,255)"/>
<path d="M0 0 C0 0.99 0 1.98 0 3 C-2.64 3 -5.28 3 -8 3 C-8 2.34 -8 1.68 -8 1 C-2.25 0 -2.25 0 0 0 Z " fill="#E77940" transform="translate(398,248)"/>
<path d="M0 0 C5.75 1.875 5.75 1.875 8 3 C7.67 3.99 7.34 4.98 7 6 C6.67 5.34 6.34 4.68 6 4 C5.0409375 3.7834375 5.0409375 3.7834375 4.0625 3.5625 C2 3 2 3 0 0 Z " fill="#F08A5D" transform="translate(239,233)"/>
<path d="M0 0 C1.32 1.32 2.64 2.64 4 4 C3.01 4.66 2.02 5.32 1 6 C0.01 4.35 -0.98 2.7 -2 1 C-1.34 0.67 -0.68 0.34 0 0 Z " fill="#374452" transform="translate(347,224)"/>
<path d="M0 0 C1 2 1 2 0.3125 4.5625 C-1 7 -1 7 -3.125 7.8125 C-3.74375 7.874375 -4.3625 7.93625 -5 8 C-3.8141763 4.62496331 -2.72426311 2.35277269 0 0 Z " fill="#525E67" transform="translate(328,196)"/>
<path d="M0 0 C0.33 0.66 0.66 1.32 1 2 C1.99 2.33 2.98 2.66 4 3 C2.1875 4.0625 2.1875 4.0625 0 5 C-0.99 4.67 -1.98 4.34 -3 4 C-2.01 2.68 -1.02 1.36 0 0 Z " fill="#6B7880" transform="translate(249,312)"/>
<path d="M0 0 C2.475 0.99 2.475 0.99 5 2 C4.01 3.485 4.01 3.485 3 5 C2.01 4.34 1.02 3.68 0 3 C0 2.01 0 1.02 0 0 Z M4 0 C4.99 0.33 5.98 0.66 7 1 C6.01 1 5.02 1 4 1 C4 0.67 4 0.34 4 0 Z " fill="#34414F" transform="translate(326,281)"/>
<path d="M0 0 C2 4 2 4 1.125 6.75 C0.75375 7.4925 0.3825 8.235 0 9 C-0.66 9 -1.32 9 -2 9 C-1.34 6.03 -0.68 3.06 0 0 Z " fill="#657F87" transform="translate(434,250)"/>
<path d="M0 0 C0.33 0.99 0.66 1.98 1 3 C0.67 3.66 0.34 4.32 0 5 C-2.32156597 5.40729228 -4.6568787 5.74438677 -7 6 C-2.25 2 -2.25 2 0 2 C0 1.34 0 0.68 0 0 Z " fill="#F28856" transform="translate(241,239)"/>
<path d="M0 0 C0.66 0.99 1.32 1.98 2 3 C1.01 3.33 0.02 3.66 -1 4 C-1.3721042 5.32303717 -1.70630173 6.65737935 -2 8 C-2.99 8.495 -2.99 8.495 -4 9 C-2.94124926 5.59687262 -1.99097846 2.98646769 0 0 Z " fill="#7C838E" transform="translate(156,203)"/>
<path d="M0 0 C0.99 0.33 1.98 0.66 3 1 C0.63707344 3.52588702 -0.66462511 4.88820837 -4 6 C-2.25 1.125 -2.25 1.125 0 0 Z " fill="#878D93" transform="translate(162,194)"/>
<path d="M0 0 C-0.66 1.32 -1.32 2.64 -2 4 C-3.65 4 -5.3 4 -7 4 C-3.375 0 -3.375 0 0 0 Z " fill="#878D92" transform="translate(186,174)"/>
</svg>
