<svg version="1.1" id="Layer_1" xmlns="http://www.w3.org/2000/svg" xmlns:xlink="http://www.w3.org/1999/xlink" x="0px" y="0px"
	 width="100%" viewBox="0 0 152 149" enable-background="new 0 0 152 149" xml:space="preserve">
<path fill="#6C6D78" opacity="1.000000" stroke="none" 
	d="
M92.000000,150.000000 
	C82.979103,150.000000 73.958214,150.000000 64.577003,149.681183 
	C65.163948,147.053055 70.890953,147.259903 67.617462,142.507812 
	C67.033875,141.792343 66.521820,141.335388 66.001717,140.508698 
	C65.098480,135.361801 62.082741,133.052475 57.360168,133.005630 
	C52.043995,132.952881 53.411705,128.692917 53.460541,126.084389 
	C53.497711,124.098785 55.184330,120.769325 56.664730,120.444824 
	C61.001259,119.494255 65.627266,119.359436 70.089737,119.656914 
	C73.335670,119.873291 75.248665,119.198143 76.134338,115.796738 
	C76.486122,115.368935 76.725052,115.164505 77.369232,114.991440 
	C79.143715,113.969925 80.542702,112.951851 82.179962,111.738441 
	C83.001305,111.368362 83.584366,111.193619 84.115829,111.465050 
	C84.353378,115.769836 82.562889,120.086800 86.626976,123.485924 
	C89.801590,125.919098 92.886749,127.999496 95.957581,130.454010 
	C95.321907,133.262207 94.700554,135.696304 93.868896,138.395950 
	C91.431908,140.375397 89.995705,142.273499 92.125183,145.427399 
	C92.048111,147.226669 92.024055,148.613327 92.000000,150.000000 
z"/>
<path fill="#57A057" opacity="1.000000" stroke="none" 
	d="
M34.000000,150.000000 
	C23.979105,150.000000 13.958210,150.000000 3.479599,149.624817 
	C3.053594,148.499634 3.085305,147.749619 3.462586,146.904648 
	C4.717186,143.582809 5.761701,140.386383 6.495482,137.120148 
	C7.170437,134.115768 7.511039,131.036285 8.373661,127.991653 
	C9.497781,127.991692 10.247175,127.989967 11.362069,127.972534 
	C18.146374,127.603264 24.967024,123.967239 30.570412,130.437683 
	C31.134369,131.088928 32.755390,130.824738 33.912811,131.453857 
	C33.959850,137.948242 33.979923,143.974121 34.000000,150.000000 
z"/>
<path fill="#44905D" opacity="1.000000" stroke="none" 
	d="
M127.000000,1.000000 
	C131.356903,1.000000 135.713806,1.000000 140.535080,1.466878 
	C140.992645,6.957343 140.985840,11.980928 140.624878,16.912071 
	C139.509247,15.487485 138.801331,14.120903 137.972519,12.832073 
	C136.974823,11.280648 135.865585,8.556250 134.820389,8.563666 
	C133.134903,8.575624 131.321548,10.241264 129.824295,11.516188 
	C128.357880,12.764848 127.459694,14.778074 125.882362,15.777438 
	C123.220901,17.463661 122.610023,19.412251 124.053360,22.032938 
	C125.911667,25.407076 126.808975,29.975788 131.963364,29.752316 
	C133.002991,29.707241 133.993576,28.025467 134.966736,27.058016 
	C136.983353,25.053232 138.973053,23.021395 141.220490,21.005463 
	C141.467133,21.010239 141.960464,21.018597 141.965210,21.486038 
	C141.965195,29.631903 141.960419,37.310329 141.927216,45.368793 
	C141.583771,47.495819 141.268768,49.242809 140.559875,50.990986 
	C134.682419,51.239540 132.703171,47.683289 131.832855,43.126343 
	C130.614090,36.744892 127.344681,32.138390 121.032341,29.524788 
	C120.688622,24.049423 120.351227,19.027430 120.338875,13.902227 
	C122.775948,9.532681 124.887978,5.266340 127.000000,1.000000 
z"/>
<path fill="#5D9E53" opacity="1.000000" stroke="none" 
	d="
M7.998935,127.989883 
	C7.511039,131.036285 7.170437,134.115768 6.495482,137.120148 
	C5.761701,140.386383 4.717186,143.582809 3.434885,146.439423 
	C3.046624,143.575317 3.287757,141.045227 2.941391,138.598282 
	C2.623464,136.352264 1.672216,134.195877 1.000000,132.000000 
	C1.000000,130.285645 1.000000,128.571274 1.076756,126.308365 
	C1.272810,125.490997 1.221640,125.237724 1.000000,125.000000 
	C1.000000,104.645775 1.000000,84.291542 1.275500,63.684135 
	C2.707100,65.337494 3.863199,67.244041 5.123093,69.386139 
	C5.500203,70.057671 5.773518,70.493652 6.031153,71.286713 
	C6.344520,72.767990 6.673567,73.892174 7.021771,75.375656 
	C8.727594,77.455368 10.414261,79.175781 12.124588,80.865562 
	C12.148250,80.834923 12.225355,80.827881 12.179206,81.237358 
	C12.921012,84.304855 13.708967,86.962868 14.700390,90.307251 
	C13.900753,91.562119 12.060485,93.596733 11.195072,95.984650 
	C9.356624,101.057434 8.067558,106.327057 6.475010,111.491844 
	C4.709398,117.217903 3.666425,122.842773 7.998935,127.989883 
z"/>
<path fill="#4D965F" opacity="1.000000" stroke="none" 
	d="
M138.000000,150.000000 
	C134.307098,150.000000 130.614182,150.000000 126.451721,149.573669 
	C124.684944,140.280777 123.792976,131.445572 128.348663,122.930984 
	C131.940567,121.163063 134.553574,117.153534 139.052734,120.480667 
	C138.702347,130.632339 138.351181,140.316162 138.000000,150.000000 
z"/>
<path fill="#6AB07B" opacity="1.000000" stroke="none" 
	d="
M138.449982,150.000000 
	C138.351181,140.316162 138.702347,130.632339 139.261002,120.164688 
	C139.645050,117.591515 139.821609,115.802155 140.406693,114.008484 
	C143.879822,113.334862 146.944458,112.665565 150.013214,112.449532 
	C149.011581,125.268532 148.005783,137.634262 147.000000,150.000000 
	C144.299988,150.000000 141.599976,150.000000 138.449982,150.000000 
z"/>
<path fill="#84B87A" opacity="1.000000" stroke="none" 
	d="
M27.000000,1.000000 
	C31.025183,1.000000 35.050365,1.000000 39.561600,1.402716 
	C40.335770,4.195194 40.623890,6.584956 40.715580,9.307037 
	C40.663292,14.746696 40.807426,19.854034 40.965042,24.978909 
	C40.978519,24.996443 40.992748,24.963442 40.809273,25.087631 
	C40.395920,25.405645 40.227051,25.642881 40.223484,26.256834 
	C40.605827,27.718498 40.883865,28.846855 40.966034,30.195213 
	C40.466343,30.661280 40.162525,30.907345 39.604485,30.948471 
	C38.352127,29.612263 37.354000,28.480997 36.278503,27.098480 
	C35.700367,26.370699 35.199600,25.894167 34.596413,25.086401 
	C31.885124,21.236300 29.276251,17.717434 26.739637,13.727812 
	C26.874599,9.171371 26.937300,5.085685 27.000000,1.000000 
z"/>
<path fill="#66AC78" opacity="1.000000" stroke="none" 
	d="
M140.953766,50.989796 
	C141.268768,49.242809 141.583771,47.495819 142.314667,45.377205 
	C145.483398,46.005486 148.236206,47.005394 150.995010,48.472443 
	C151.034409,54.307678 151.067810,59.675777 151.081589,65.421600 
	C151.707977,67.199554 152.353989,68.599777 153.000000,70.000000 
	C153.000000,70.444443 153.000000,70.888893 152.651917,71.725746 
	C150.558853,72.795868 148.813858,73.473579 146.807526,73.927155 
	C144.694656,73.807983 142.843124,73.912949 140.969543,73.769196 
	C140.947510,73.520485 140.884201,73.025558 140.906311,72.555878 
	C140.936890,65.054054 140.945328,58.021927 140.953766,50.989796 
z"/>
<path fill="#82B77A" opacity="1.000000" stroke="none" 
	d="
M68.000000,1.000000 
	C72.025185,1.000000 76.050362,1.000000 80.528595,1.452941 
	C81.472633,6.733611 81.963631,11.561338 82.209518,16.610798 
	C79.949135,18.493793 77.933861,20.155060 75.601868,21.855110 
	C74.398895,22.458906 73.512657,23.023914 72.372101,23.740828 
	C72.045082,24.237371 71.972389,24.582008 71.982712,24.886040 
	C72.065735,24.845434 71.985031,24.679148 71.824371,24.459576 
	C71.123299,24.213608 70.582886,24.187212 69.745331,24.064934 
	C69.040176,23.342810 68.632164,22.716566 68.532585,21.944822 
	C69.880592,21.150337 70.920174,20.501356 71.959755,19.852375 
	C71.394470,19.799824 70.829193,19.747272 70.263908,19.694719 
	C69.494133,16.129995 68.724365,12.565271 67.963341,8.667120 
	C67.953354,7.889464 67.934624,7.445237 67.935791,6.667181 
	C67.927727,5.888793 67.899765,5.444233 67.896385,4.600224 
	C67.947311,3.133851 67.973656,2.066925 68.000000,1.000000 
z"/>
<path fill="#5DAB75" opacity="1.000000" stroke="none" 
	d="
M150.989014,48.005302 
	C148.236206,47.005394 145.483398,46.005486 142.343124,44.997169 
	C141.960419,37.310329 141.965195,29.631903 141.981918,21.074375 
	C141.602921,15.078211 144.217407,13.370677 148.957977,14.483824 
	C149.636383,19.932690 150.305588,24.962383 150.623108,30.075062 
	C149.215530,32.110062 146.881287,34.581078 147.412231,35.888828 
	C148.153442,37.714497 151.034561,38.671364 153.000000,40.000000 
	C153.000000,40.750000 153.000000,41.500000 152.662262,42.748333 
	C151.879349,44.832878 151.434174,46.419090 150.989014,48.005302 
z"/>
<path fill="#559558" opacity="1.000000" stroke="none" 
	d="
M67.531342,1.000000 
	C67.973656,2.066925 67.947311,3.133851 67.664429,4.674945 
	C67.577232,5.766413 67.746559,6.383711 67.915894,7.001009 
	C67.934624,7.445237 67.953354,7.889464 67.660042,8.770138 
	C66.018059,9.775678 64.690979,10.808825 63.357590,10.817016 
	C60.603008,10.833937 57.850185,10.243107 55.087376,10.013932 
	C50.366005,9.622295 45.637508,9.316542 40.912006,8.974716 
	C40.623890,6.584956 40.335770,4.195194 40.023827,1.402716 
	C49.020893,1.000000 58.041790,1.000000 67.531342,1.000000 
z"/>
<path fill="#84AF85" opacity="1.000000" stroke="none" 
	d="
M119.000000,150.000000 
	C116.957680,150.000000 114.915367,150.000000 112.590057,149.678177 
	C110.875984,148.234207 109.444885,147.112061 108.081070,145.609131 
	C109.033775,140.451859 109.919197,135.675369 111.004807,130.627075 
	C112.893547,128.656631 114.582092,126.957962 116.514877,125.050644 
	C117.837387,124.231140 118.915642,123.620308 120.045288,123.288666 
	C120.377609,124.051682 120.658539,124.535515 120.930214,125.449799 
	C120.280640,133.920166 119.640327,141.960083 119.000000,150.000000 
z"/>
<path fill="#81B77B" opacity="1.000000" stroke="none" 
	d="
M34.454109,150.000000 
	C33.979923,143.974121 33.959850,137.948242 33.803493,131.151123 
	C33.117275,128.315598 32.567341,126.251320 32.349197,124.267044 
	C36.111355,126.259773 39.541718,128.172516 43.050041,130.490234 
	C43.438591,136.961975 43.749180,143.028717 44.022301,149.320099 
	C43.984825,149.544754 44.000000,150.000000 44.000000,150.000000 
	C40.969406,150.000000 37.938812,150.000000 34.454109,150.000000 
z"/>
<path fill="#529452" opacity="1.000000" stroke="none" 
	d="
M1.000000,44.000000 
	C1.000000,30.979105 1.000000,17.958210 1.304937,4.592386 
	C3.078964,5.836073 4.548054,7.424688 6.092864,9.397678 
	C6.594811,15.159321 7.021040,20.536589 7.280330,26.215414 
	C5.075594,32.344646 3.037797,38.172325 1.000000,44.000000 
z"/>
<path fill="#4D9660" opacity="1.000000" stroke="none" 
	d="
M147.499481,150.000000 
	C148.005783,137.634262 149.011581,125.268532 150.000397,112.148430 
	C149.936356,110.996620 149.889267,110.599182 150.235840,110.162186 
	C151.419662,110.081757 152.209824,110.040878 153.000000,110.000000 
	C153.000000,123.333359 153.000000,136.666718 153.000000,150.000000 
	C151.295731,150.000000 149.647339,150.000000 147.499481,150.000000 
z"/>
<path fill="#6FA87E" opacity="1.000000" stroke="none" 
	d="
M140.991592,74.017906 
	C142.843124,73.912949 144.694656,73.807983 146.570770,74.139122 
	C145.905334,75.347626 145.215317,76.120041 143.437134,78.110542 
	C147.631943,77.623398 150.315964,77.311699 153.000000,77.000000 
	C153.000000,77.750000 153.000000,78.500000 152.655670,79.754776 
	C151.179520,83.494301 150.047714,86.729042 148.533722,89.964127 
	C146.429459,90.663231 144.707352,91.361984 142.744629,92.068329 
	C142.504013,92.075928 142.036591,92.192169 141.757919,92.011520 
	C140.548340,90.887131 139.617432,89.943390 138.678040,88.671394 
	C134.973404,82.613655 142.562088,82.906700 143.668625,79.113129 
	C141.897110,79.371460 140.496887,79.575645 139.078445,79.427467 
	C139.704010,77.389374 140.347794,75.703636 140.991592,74.017906 
z"/>
<path fill="#52955A" opacity="1.000000" stroke="none" 
	d="
M82.454620,16.389067 
	C81.963631,11.561338 81.472633,6.733611 80.990822,1.452941 
	C83.041664,1.000000 85.083336,1.000000 87.632370,1.337702 
	C90.761436,5.780369 93.383125,9.885334 95.653290,14.059170 
	C93.560760,14.723051 91.819748,15.318061 89.745956,15.826015 
	C87.093666,15.955663 84.774139,16.172365 82.454620,16.389067 
z"/>
<path fill="#529D62" opacity="1.000000" stroke="none" 
	d="
M148.948776,14.064652 
	C144.217407,13.370677 141.602921,15.078211 141.977173,20.606934 
	C141.960464,21.018597 141.467133,21.010239 141.227112,20.605766 
	C140.984390,19.135702 140.981705,18.070108 140.979034,17.004515 
	C140.985840,11.980928 140.992645,6.957343 140.999725,1.466878 
	C144.917175,1.000000 148.834335,1.000000 153.000000,1.000000 
	C153.000000,4.342351 153.000000,7.688220 152.635834,11.523180 
	C151.164032,12.696399 150.056412,13.380526 148.948776,14.064652 
z"/>
<path fill="#579863" opacity="1.000000" stroke="none" 
	d="
M119.437500,150.000000 
	C119.640327,141.960083 120.280640,133.920166 121.240990,125.301659 
	C123.036804,124.145767 124.512581,123.568466 126.324509,122.993652 
	C127.108940,122.999245 127.557213,123.002342 128.005493,123.005447 
	C123.792976,131.445572 124.684944,140.280777 125.991081,149.573669 
	C123.958336,150.000000 121.916664,150.000000 119.437500,150.000000 
z"/>
<path fill="#498F59" opacity="1.000000" stroke="none" 
	d="
M96.004807,13.990299 
	C93.383125,9.885334 90.761436,5.780369 88.069870,1.337702 
	C94.687645,1.000000 101.375290,1.000000 108.396286,1.209204 
	C108.522690,1.682212 108.279472,1.906723 107.670319,2.157334 
	C105.283829,5.157759 103.227020,8.092793 100.834885,11.077756 
	C99.001320,12.081890 97.503059,13.036095 96.004807,13.990299 
z"/>
<path fill="#5A985C" opacity="1.000000" stroke="none" 
	d="
M26.531378,1.000000 
	C26.937300,5.085685 26.874599,9.171371 26.474117,13.544922 
	C21.813303,9.763272 17.440536,5.788908 10.830571,5.556439 
	C8.492452,4.430243 6.261785,3.637110 4.024121,2.537460 
	C4.011416,1.820628 4.005708,1.410314 4.000000,1.000000 
	C11.354252,1.000000 18.708504,1.000000 26.531378,1.000000 
z"/>
<path fill="#5B6D64" opacity="1.000000" stroke="none" 
	d="
M107.999985,2.091942 
	C108.279472,1.906723 108.522690,1.682212 108.864822,1.209204 
	C110.714355,1.000000 112.428719,1.000000 114.598137,1.421743 
	C115.012512,3.251001 114.971817,4.658516 114.600220,6.075407 
	C113.712372,7.408570 113.155441,8.732358 112.196198,10.056698 
	C107.729630,11.034549 104.687531,12.846275 103.726822,17.487553 
	C103.075966,20.631895 101.222763,23.316441 97.356033,22.727234 
	C100.444740,17.642979 103.562943,12.953192 106.332901,8.066029 
	C107.322258,6.320458 107.468765,4.097178 107.999985,2.091942 
z"/>
<path fill="#629370" opacity="1.000000" stroke="none" 
	d="
M142.985260,92.060730 
	C144.707352,91.361984 146.429459,90.663231 148.792618,90.187119 
	C150.622452,90.939842 151.811234,91.469925 153.000000,92.000000 
	C153.000000,97.022095 153.000000,102.044182 152.756409,107.492126 
	C152.191650,107.832390 151.865051,107.796844 151.506866,107.406967 
	C151.273209,100.529892 146.595642,96.598694 142.985260,92.060730 
z"/>
<path fill="#5D7F68" opacity="1.000000" stroke="none" 
	d="
M57.000000,150.000000 
	C56.250000,150.000000 55.500000,150.000000 54.439308,149.842896 
	C54.143017,149.450668 54.060604,149.257065 53.820709,148.733627 
	C53.656345,148.133881 53.552658,147.905487 53.633324,147.416077 
	C56.247543,142.855362 54.204716,139.831879 51.157143,136.847412 
	C49.487507,135.212357 48.323055,133.061417 47.125233,131.021362 
	C50.601784,133.301849 53.883900,135.704071 57.231445,138.439667 
	C61.354252,142.625259 59.887707,146.331421 57.000000,150.000000 
z"/>
<path fill="#4B9961" opacity="1.000000" stroke="none" 
	d="
M148.957977,14.483824 
	C150.056412,13.380526 151.164032,12.696399 152.635834,12.006136 
	C153.000000,20.020899 153.000000,28.041800 152.655334,36.388222 
	C151.865387,34.473194 151.420090,32.232635 150.974792,29.992077 
	C150.305588,24.962383 149.636383,19.932690 148.957977,14.483824 
z"/>
<path fill="#4D9161" opacity="1.000000" stroke="none" 
	d="
M126.571533,1.000000 
	C124.887978,5.266340 122.775948,9.532681 120.331879,13.517085 
	C119.613434,11.830754 119.227036,10.426358 118.841019,8.691282 
	C118.812080,7.922109 118.782768,7.483615 119.012695,6.794848 
	C119.847954,4.696383 120.423981,2.848192 121.000000,1.000000 
	C122.714355,1.000000 124.428719,1.000000 126.571533,1.000000 
z"/>
<path fill="#32380D" opacity="1.000000" stroke="none" 
	d="
M5.019297,69.150589 
	C3.863199,67.244041 2.707100,65.337494 1.275500,63.215477 
	C1.000000,57.311958 1.000000,51.623920 1.438172,45.475235 
	C2.460485,45.028713 3.044625,45.042835 3.541411,45.515739 
	C4.008862,51.909081 4.563666,57.843639 5.380116,63.987030 
	C6.052307,65.440704 6.462852,66.685539 6.616672,68.039398 
	C5.913063,68.482468 5.466179,68.816528 5.019297,69.150589 
z"/>
<path fill="#32403F" opacity="1.000000" stroke="none" 
	d="
M57.416664,150.000000 
	C59.887707,146.331421 61.354252,142.625259 57.585213,138.462646 
	C60.585621,139.060989 63.297691,139.969711 66.009766,140.878433 
	C66.521820,141.335388 67.033875,141.792343 67.239563,142.551315 
	C61.803410,142.829651 62.044945,146.513702 62.000000,150.000000 
	C60.611111,150.000000 59.222221,150.000000 57.416664,150.000000 
z"/>
<path fill="#44421F" opacity="1.000000" stroke="none" 
	d="
M3.628764,45.056961 
	C3.044625,45.042835 2.460485,45.028713 1.438172,45.007294 
	C1.000000,45.000000 1.000000,44.500000 1.000000,44.250000 
	C3.037797,38.172325 5.075594,32.344646 7.669571,26.235752 
	C8.484080,25.970341 8.742410,25.986149 9.018082,26.403721 
	C8.556037,29.162718 8.076650,31.519951 7.445345,34.162582 
	C7.085584,35.485229 6.877740,36.522476 6.460036,37.849403 
	C5.376372,40.445042 4.502568,42.750999 3.628764,45.056961 
z"/>
<path fill="#4B9961" opacity="1.000000" stroke="none" 
	d="
M150.995010,48.472443 
	C151.434174,46.419090 151.879349,44.832878 152.662262,43.123333 
	C153.000000,50.687576 153.000000,58.375153 152.791641,66.352036 
	C152.089264,66.108849 151.595230,65.576363 151.101212,65.043877 
	C151.067810,59.675777 151.034409,54.307678 150.995010,48.472443 
z"/>
<path fill="#245E22" opacity="1.000000" stroke="none" 
	d="
M4.031119,2.843977 
	C6.261785,3.637110 8.492452,4.430243 10.598860,5.711572 
	C9.977688,6.748558 9.480773,7.297349 8.935482,8.141725 
	C8.847216,8.631923 8.807325,8.826537 8.423496,9.016413 
	C7.392086,9.012218 6.704615,9.012760 6.017145,9.013303 
	C4.548054,7.424688 3.078964,5.836073 1.304937,4.123729 
	C1.000000,4.000000 1.000000,3.500000 1.379433,3.266979 
	C2.516284,2.970631 3.273701,2.907304 4.031119,2.843977 
z"/>
<path fill="#57A671" opacity="1.000000" stroke="none" 
	d="
M150.623108,30.075062 
	C151.420090,32.232635 151.865387,34.473194 152.655334,36.856873 
	C153.000000,37.750000 153.000000,38.500000 153.000000,39.625000 
	C151.034561,38.671364 148.153442,37.714497 147.412231,35.888828 
	C146.881287,34.581078 149.215530,32.110062 150.623108,30.075062 
z"/>
<path fill="#70B564" opacity="1.000000" stroke="none" 
	d="
M1.000000,132.469711 
	C1.672216,134.195877 2.623464,136.352264 2.941391,138.598282 
	C3.287757,141.045227 3.046624,143.575317 3.089314,146.534393 
	C3.085305,147.749619 3.053594,148.499634 3.010941,149.624817 
	C2.333332,149.363373 1.109542,148.744553 1.088551,148.087311 
	C0.927420,143.042221 1.000000,137.989655 1.000000,132.469711 
z"/>
<path fill="#529467" opacity="1.000000" stroke="none" 
	d="
M153.000000,76.583336 
	C150.315964,77.311699 147.631943,77.623398 143.437134,78.110542 
	C145.215317,76.120041 145.905334,75.347626 146.832108,74.363251 
	C148.813858,73.473579 150.558853,72.795868 152.651917,72.059082 
	C153.000000,73.388893 153.000000,74.777779 153.000000,76.583336 
z"/>
<path fill="#2A4035" opacity="1.000000" stroke="none" 
	d="
M108.013786,145.989929 
	C109.444885,147.112061 110.875984,148.234207 112.153534,149.678177 
	C111.250000,150.000000 110.500000,150.000000 109.161476,149.687592 
	C104.718918,149.240295 100.864883,149.105408 97.005638,148.644821 
	C97.003548,147.884583 97.006668,147.450043 97.407852,146.921539 
	C101.208542,146.548355 104.611168,146.269135 108.013786,145.989929 
z"/>
<path fill="#676B73" opacity="1.000000" stroke="none" 
	d="
M62.333332,150.000000 
	C62.044945,146.513702 61.803410,142.829651 67.311104,142.809845 
	C70.890953,147.259903 65.163948,147.053055 64.108345,149.681183 
	C63.555553,150.000000 63.111111,150.000000 62.333332,150.000000 
z"/>
<path fill="#529467" opacity="1.000000" stroke="none" 
	d="
M153.000000,91.539368 
	C151.811234,91.469925 150.622452,90.939842 149.174789,90.186775 
	C150.047714,86.729042 151.179520,83.494301 152.655670,80.129776 
	C153.000000,83.692909 153.000000,87.385818 153.000000,91.539368 
z"/>
<path fill="#619968" opacity="1.000000" stroke="none" 
	d="
M120.571533,1.000000 
	C120.423981,2.848192 119.847954,4.696383 118.711868,6.732238 
	C117.148384,6.607529 116.144974,6.295156 115.108231,6.052324 
	C115.074905,6.121865 114.931129,6.066031 114.931129,6.066031 
	C114.971817,4.658516 115.012512,3.251001 115.026596,1.421743 
	C116.714355,1.000000 118.428719,1.000000 120.571533,1.000000 
z"/>
<path fill="#576465" opacity="1.000000" stroke="none" 
	d="
M97.010849,148.970520 
	C100.864883,149.105408 104.718918,149.240295 108.786476,149.687592 
	C104.975456,150.000000 100.950912,150.000000 96.610100,149.808594 
	C96.517441,149.384583 96.756447,149.169022 97.010849,148.970520 
z"/>
<path fill="#374544" opacity="1.000000" stroke="none" 
	d="
M97.005638,148.644821 
	C96.756447,149.169022 96.517441,149.384583 96.146912,149.808594 
	C94.933327,150.000000 93.866661,150.000000 92.399994,150.000000 
	C92.024055,148.613327 92.048111,147.226669 92.319923,145.423767 
	C92.567680,145.007538 92.959564,144.995117 93.016869,145.313019 
	C94.386040,146.092453 95.697914,146.553986 97.009781,147.015503 
	C97.006668,147.450043 97.003548,147.884583 97.005638,148.644821 
z"/>
<path fill="#1D3F24" opacity="1.000000" stroke="none" 
	d="
M53.448975,147.677094 
	C53.552658,147.905487 53.656345,148.133881 53.347717,148.692993 
	C51.290268,149.349136 49.645134,149.674561 48.000000,150.000000 
	C46.933327,150.000000 45.866653,150.000000 44.399990,150.000000 
	C44.000000,150.000000 43.984825,149.544754 44.429073,149.255951 
	C47.731873,148.537125 50.590424,148.107117 53.448975,147.677094 
z"/>
<path fill="#529467" opacity="1.000000" stroke="none" 
	d="
M151.081589,65.421600 
	C151.595230,65.576363 152.089264,66.108849 152.791641,66.820663 
	C153.000000,67.750000 153.000000,68.500000 153.000000,69.625000 
	C152.353989,68.599777 151.707977,67.199554 151.081589,65.421600 
z"/>
<path fill="#304C3B" opacity="1.000000" stroke="none" 
	d="
M48.428459,150.000000 
	C49.645134,149.674561 51.290268,149.349136 53.408390,149.064331 
	C54.060604,149.257065 54.143017,149.450668 54.064308,149.842896 
	C52.285641,150.000000 50.571285,150.000000 48.428459,150.000000 
z"/>
<path fill="#529452" opacity="1.000000" stroke="none" 
	d="
M4.024121,2.537460 
	C3.273701,2.907304 2.516284,2.970631 1.379433,3.016979 
	C1.666667,2.333333 2.333333,1.666667 3.500000,1.000000 
	C4.005708,1.410314 4.011416,1.820628 4.024121,2.537460 
z"/>
<path fill="#3C6B4B" opacity="1.000000" stroke="none" 
	d="
M151.533005,107.811340 
	C151.865051,107.796844 152.191650,107.832390 152.756409,107.958984 
	C153.000000,108.444443 153.000000,108.888893 153.000000,109.666672 
	C152.209824,110.040878 151.419662,110.081757 150.180359,109.976593 
	C149.731247,109.830544 149.694534,109.447403 149.995911,109.168564 
	C150.709183,108.530266 151.121094,108.170807 151.533005,107.811340 
z"/>
<path fill="#70B564" opacity="1.000000" stroke="none" 
	d="
M1.000000,125.250000 
	C1.221640,125.237724 1.272810,125.490997 1.076756,125.879906 
	C1.000000,126.000000 1.000000,125.500000 1.000000,125.250000 
z"/>
<path fill="#676B73" opacity="1.000000" stroke="none" 
	d="
M66.001717,140.508698 
	C63.297691,139.969711 60.585621,139.060989 57.519783,138.129272 
	C53.883900,135.704071 50.601784,133.301849 46.803223,130.927505 
	C45.466484,130.584290 44.646191,130.213181 43.778931,129.515503 
	C41.790039,127.186462 39.848110,125.183998 38.033592,122.836517 
	C41.077187,120.438217 42.068569,118.063736 41.660950,114.149178 
	C40.913498,106.971031 45.442356,104.054214 52.234936,106.306686 
	C54.065372,106.913681 56.186836,107.121361 58.103706,106.899338 
	C63.749672,106.245377 69.365257,105.315437 74.974289,104.382622 
	C75.419937,104.308510 75.723640,103.380867 76.432327,103.019089 
	C78.512177,103.416901 80.252991,103.645515 81.974297,104.238464 
	C80.630020,107.062035 79.305267,109.521263 77.626801,112.002899 
	C76.070045,112.927284 74.867004,113.829262 73.663971,114.731239 
	C74.439888,115.149269 75.215805,115.567291 75.991714,115.985321 
	C75.248665,119.198143 73.335670,119.873291 70.089737,119.656914 
	C65.627266,119.359436 61.001259,119.494255 56.664730,120.444824 
	C55.184330,120.769325 53.497711,124.098785 53.460541,126.084389 
	C53.411705,128.692917 52.043995,132.952881 57.360168,133.005630 
	C62.082741,133.052475 65.098480,135.361801 66.001717,140.508698 
z"/>
<path fill="#3C4E46" opacity="1.000000" stroke="none" 
	d="
M92.959564,144.995117 
	C92.959564,144.995117 92.567680,145.007538 92.372940,145.011169 
	C89.995705,142.273499 91.431908,140.375397 94.231903,138.357880 
	C98.866974,135.703003 102.928764,133.351730 107.243896,131.170349 
	C107.808701,131.606842 108.120163,131.873444 108.292374,132.464142 
	C106.417427,134.213516 104.696480,135.657227 102.942871,137.060104 
	C99.623497,139.715591 94.501472,140.101410 92.959564,144.995117 
z"/>
<path fill="#63696A" opacity="1.000000" stroke="none" 
	d="
M106.990547,131.000458 
	C102.928764,133.351730 98.866974,135.703003 94.442192,138.092346 
	C94.700554,135.696304 95.321907,133.262207 96.402321,130.436707 
	C100.222122,129.726608 103.582863,129.407913 106.965347,129.406464 
	C106.988243,130.149292 106.989395,130.574875 106.990547,131.000458 
z"/>
<path fill="#605D69" opacity="1.000000" stroke="none" 
	d="
M77.980507,111.980492 
	C79.305267,109.521263 80.630020,107.062035 82.259789,104.014496 
	C84.385323,103.644478 86.205856,103.862770 88.119621,104.437027 
	C87.728966,106.795868 87.245071,108.798737 86.328262,110.840271 
	C85.319382,110.925583 84.743408,110.972229 84.167435,111.018875 
	C83.584366,111.193619 83.001305,111.368362 81.788979,111.753387 
	C80.112144,111.981895 79.064575,112.000122 78.008347,112.009171 
	C77.999687,111.999985 77.980507,111.980492 77.980507,111.980492 
z"/>
<path fill="#48484C" opacity="1.000000" stroke="none" 
	d="
M106.943604,129.089203 
	C103.582863,129.407913 100.222122,129.726608 96.416641,130.062607 
	C92.886749,127.999496 89.801590,125.919098 87.049988,123.428833 
	C87.663368,122.984581 87.943184,122.950203 88.512787,123.084183 
	C94.186859,129.073700 101.006035,128.056076 107.692520,127.565125 
	C107.381927,128.293152 107.162766,128.691177 106.943604,129.089203 
z"/>
<path fill="#504F57" opacity="1.000000" stroke="none" 
	d="
M88.223000,122.915825 
	C87.943184,122.950203 87.663368,122.984581 86.960526,123.076050 
	C82.562889,120.086800 84.353378,115.769836 84.115829,111.465050 
	C84.743408,110.972229 85.319382,110.925583 86.265564,111.296280 
	C87.164856,115.447685 87.693924,119.181755 88.223000,122.915825 
z"/>
<path fill="#605D69" opacity="1.000000" stroke="none" 
	d="
M76.134338,115.796738 
	C75.215805,115.567291 74.439888,115.149269 73.663971,114.731239 
	C74.867004,113.829262 76.070045,112.927284 77.626801,112.002899 
	C77.980507,111.980492 77.999687,111.999985 77.952713,112.319931 
	C77.601738,113.424873 77.297737,114.209877 76.993744,114.994873 
	C76.725052,115.164505 76.486122,115.368935 76.134338,115.796738 
z"/>
<path fill="#676B73" opacity="1.000000" stroke="none" 
	d="
M77.369232,114.991440 
	C77.297737,114.209877 77.601738,113.424873 77.961365,112.329117 
	C79.064575,112.000122 80.112144,111.981895 81.550705,111.948715 
	C80.542702,112.951851 79.143715,113.969925 77.369232,114.991440 
z"/>
<path fill="#5F9458" opacity="1.000000" stroke="none" 
	d="
M8.373661,127.991653 
	C3.666425,122.842773 4.709398,117.217903 6.475010,111.491844 
	C8.067558,106.327057 9.356624,101.057434 11.195072,95.984650 
	C12.060485,93.596733 13.900753,91.562119 14.700390,90.307251 
	C13.708967,86.962868 12.921012,84.304855 12.501579,81.345154 
	C16.424465,83.108681 19.978828,85.173882 23.282270,87.485794 
	C17.964077,96.386864 12.785756,104.979988 7.943218,113.758339 
	C7.172166,115.156067 7.909602,117.385941 7.950734,119.583237 
	C8.054354,121.933594 7.648014,124.456238 11.262384,123.264397 
	C11.277886,125.017822 11.137227,126.503029 10.996569,127.988235 
	C10.247175,127.989967 9.497781,127.991692 8.373661,127.991653 
z"/>
<path fill="#5A965F" opacity="1.000000" stroke="none" 
	d="
M11.362068,127.972534 
	C11.137227,126.503029 11.277886,125.017822 11.495745,123.095825 
	C12.946069,122.777611 14.319192,122.896194 16.089043,122.946381 
	C21.889496,120.626801 27.169178,119.847343 32.017403,124.187042 
	C32.567341,126.251320 33.117275,128.315598 33.776531,130.682617 
	C32.755390,130.824738 31.134369,131.088928 30.570412,130.437683 
	C24.967024,123.967239 18.146374,127.603264 11.362068,127.972534 
z"/>
<path fill="#50935F" opacity="1.000000" stroke="none" 
	d="
M140.559875,50.990986 
	C140.945328,58.021927 140.936890,65.054054 140.573242,72.630371 
	C134.314178,76.394920 132.054871,76.244949 130.534317,72.009331 
	C128.769501,67.093307 127.483475,62.005394 126.199883,56.716045 
	C124.298172,51.952785 122.186203,47.465565 120.054108,42.606354 
	C120.011169,41.489532 119.988365,40.744705 120.199066,39.670105 
	C120.634605,36.219608 120.836639,33.098885 121.038666,29.978161 
	C127.344681,32.138390 130.614090,36.744892 131.832855,43.126343 
	C132.703171,47.683289 134.682419,51.239540 140.559875,50.990986 
z"/>
<path fill="#3F8C5B" opacity="1.000000" stroke="none" 
	d="
M140.624878,16.912071 
	C140.981705,18.070108 140.984390,19.135702 140.980453,20.600990 
	C138.973053,23.021395 136.983353,25.053232 134.966736,27.058016 
	C133.993576,28.025467 133.002991,29.707241 131.963364,29.752316 
	C126.808975,29.975788 125.911667,25.407076 124.053360,22.032938 
	C122.610023,19.412251 123.220901,17.463661 125.882362,15.777438 
	C127.459694,14.778074 128.357880,12.764848 129.824295,11.516188 
	C131.321548,10.241264 133.134903,8.575624 134.820389,8.563666 
	C135.865585,8.556250 136.974823,11.280648 137.972519,12.832073 
	C138.801331,14.120903 139.509247,15.487485 140.624878,16.912071 
z"/>
<path fill="#619968" opacity="1.000000" stroke="none" 
	d="
M121.032341,29.524788 
	C120.836639,33.098885 120.634605,36.219608 119.971130,39.327667 
	C119.013748,31.633188 118.418175,23.955751 118.080780,16.266983 
	C117.975494,13.867710 118.567711,11.437831 118.840637,9.021962 
	C119.227036,10.426358 119.613434,11.830754 120.006836,13.620293 
	C120.351227,19.027430 120.688622,24.049423 121.032341,29.524788 
z"/>
<path fill="#AB6F60" opacity="1.000000" stroke="none" 
	d="
M5.123092,69.386139 
	C5.466179,68.816528 5.913063,68.482468 6.955781,68.126633 
	C8.596324,69.082008 9.595263,70.114265 10.693578,71.026917 
	C15.738637,75.219131 19.899830,80.871101 27.153225,81.446594 
	C26.586475,82.405273 26.181471,83.106438 25.400860,83.851501 
	C21.173742,81.910164 17.122995,80.225098 13.534712,77.843300 
	C10.740263,75.988434 8.521461,73.266327 6.046833,70.929634 
	C5.773518,70.493652 5.500203,70.057671 5.123092,69.386139 
z"/>
<path fill="#555631" opacity="1.000000" stroke="none" 
	d="
M6.031154,71.286713 
	C8.521461,73.266327 10.740263,75.988434 13.534712,77.843300 
	C17.122995,80.225098 21.173742,81.910164 25.616447,84.102997 
	C26.541037,84.598579 26.874434,84.886551 27.116182,85.459732 
	C26.427277,86.530525 25.830019,87.316124 25.056009,87.921494 
	C24.430571,87.573883 23.981880,87.406487 23.533192,87.239090 
	C19.978828,85.173882 16.424465,83.108681 12.547729,80.935684 
	C12.225355,80.827881 12.148250,80.834923 12.050996,80.542526 
	C10.303367,78.505547 8.652990,76.760956 7.002614,75.016365 
	C6.673567,73.892174 6.344520,72.767990 6.031154,71.286713 
z"/>
<path fill="#5F9458" opacity="1.000000" stroke="none" 
	d="
M7.021771,75.375656 
	C8.652990,76.760956 10.303367,78.505547 12.027334,80.573166 
	C10.414261,79.175781 8.727594,77.455368 7.021771,75.375656 
z"/>
<path fill="#569366" opacity="1.000000" stroke="none" 
	d="
M128.348663,122.930984 
	C127.557213,123.002342 127.108940,122.999245 126.427017,122.672234 
	C129.126099,117.522377 134.009399,115.685120 139.241943,114.000595 
	C139.662079,114.007240 139.830139,114.010017 139.998184,114.012802 
	C139.821609,115.802155 139.645050,117.591515 139.260223,119.696854 
	C134.553574,117.153534 131.940567,121.163063 128.348663,122.930984 
z"/>
<path fill="#70A680" opacity="1.000000" stroke="none" 
	d="
M140.406693,114.008484 
	C139.830139,114.010017 139.662079,114.007240 139.381897,113.688538 
	C139.524246,112.270241 139.778732,111.167847 140.408630,109.960144 
	C142.846451,109.498955 144.908844,109.143082 147.264252,108.905472 
	C147.971405,109.082947 148.385513,109.142166 149.018524,109.280457 
	C149.237427,109.359535 149.694534,109.447403 149.694534,109.447403 
	C149.694534,109.447403 149.731247,109.830544 149.786713,110.016144 
	C149.889267,110.599182 149.936356,110.996620 149.996246,111.695168 
	C146.944458,112.665565 143.879822,113.334862 140.406693,114.008484 
z"/>
<path fill="#5B975B" opacity="1.000000" stroke="none" 
	d="
M40.715580,9.307036 
	C45.637508,9.316542 50.366005,9.622295 55.087376,10.013932 
	C57.850185,10.243107 60.603008,10.833937 63.357590,10.817016 
	C64.690979,10.808825 66.018059,9.775678 67.651299,9.103566 
	C68.724365,12.565271 69.494133,16.129995 70.263908,19.694719 
	C70.829193,19.747272 71.394470,19.799824 71.959755,19.852375 
	C70.920174,20.501356 69.880592,21.150337 68.306992,21.750784 
	C67.231606,21.493664 66.690239,21.285080 65.752945,21.082951 
	C62.805618,22.062572 59.071991,22.303577 57.929100,24.149031 
	C54.763031,29.261347 51.008858,30.167822 45.968822,27.890568 
	C44.213573,27.097488 42.619335,25.948055 40.951565,24.961372 
	C40.807426,19.854034 40.663292,14.746696 40.715580,9.307036 
z"/>
<path fill="#5F9362" opacity="1.000000" stroke="none" 
	d="
M40.965042,24.978909 
	C42.619335,25.948055 44.213573,27.097488 45.968822,27.890568 
	C51.008858,30.167822 54.763031,29.261347 57.929100,24.149031 
	C59.071991,22.303577 62.805618,22.062572 65.725037,21.412506 
	C66.083305,22.177889 66.073540,22.620171 65.857529,23.321106 
	C63.489708,25.407120 61.328125,27.234482 58.790993,29.065277 
	C57.028175,30.460114 55.640903,31.851521 54.343655,33.287445 
	C54.433678,33.331966 54.440277,33.532715 54.005836,33.425858 
	C49.434898,32.204403 45.298401,31.089808 41.161903,29.975212 
	C40.883865,28.846855 40.605827,27.718498 40.392887,26.122011 
	C40.670742,25.450466 40.848995,25.220320 40.992748,24.963442 
	C40.992748,24.963442 40.978519,24.996443 40.965042,24.978909 
z"/>
<path fill="#3B4025" opacity="1.000000" stroke="none" 
	d="
M8.983859,7.846140 
	C9.480773,7.297349 9.977688,6.748558 10.706313,6.044634 
	C17.440536,5.788908 21.813303,9.763272 26.401859,14.015678 
	C29.276251,17.717434 31.885124,21.236300 34.370544,25.262041 
	C34.104359,25.892431 33.961632,26.015947 33.552063,25.954563 
	C31.541861,24.495050 29.798500,23.220438 28.029671,21.972914 
	C28.004204,22.000000 28.059509,21.945843 28.074694,21.587620 
	C25.719252,18.493753 23.348627,15.758111 20.988689,13.012241 
	C20.999378,13.002014 20.979830,13.018394 20.778170,12.812142 
	C20.053839,12.377360 19.531170,12.148829 18.765329,11.681826 
	C15.342726,10.244281 12.163293,9.045211 8.983859,7.846140 
z"/>
<path fill="#648B68" opacity="1.000000" stroke="none" 
	d="
M40.966034,30.195213 
	C45.298401,31.089808 49.434898,32.204403 53.865677,33.715538 
	C52.055882,35.689491 49.951813,37.266903 47.513359,38.813805 
	C44.738884,36.240002 42.298798,33.696709 39.858707,31.153412 
	C40.162525,30.907345 40.466343,30.661280 40.966034,30.195213 
z"/>
<path fill="#3C493A" opacity="1.000000" stroke="none" 
	d="
M39.604485,30.948471 
	C42.298798,33.696709 44.738884,36.240002 47.728874,39.091125 
	C48.622906,39.712440 48.967037,40.025921 49.219048,40.647209 
	C49.036789,41.596439 48.946651,42.237865 48.505386,42.892952 
	C45.716393,40.976070 43.278526,39.045525 40.712582,36.809727 
	C39.056450,34.348484 37.528393,32.192493 36.040787,29.587843 
	C36.172779,28.542698 36.264324,27.946213 36.355869,27.349730 
	C37.354000,28.480997 38.352127,29.612263 39.604485,30.948471 
z"/>
<path fill="#3B4025" opacity="1.000000" stroke="none" 
	d="
M36.278503,27.098480 
	C36.264324,27.946213 36.172779,28.542698 35.862701,29.423904 
	C35.421440,29.475534 35.203876,29.237715 34.861679,28.712715 
	C34.427555,27.666660 34.123234,26.903061 33.818909,26.139462 
	C33.961632,26.015947 34.104359,25.892431 34.472961,25.593277 
	C35.199600,25.894167 35.700367,26.370699 36.278503,27.098480 
z"/>
<path fill="#5B975B" opacity="1.000000" stroke="none" 
	d="
M40.809273,25.087631 
	C40.848995,25.220320 40.670742,25.450466 40.288586,25.788704 
	C40.227051,25.642881 40.395920,25.405645 40.809273,25.087631 
z"/>
<path fill="#568964" opacity="1.000000" stroke="none" 
	d="
M125.989632,56.992088 
	C127.483475,62.005394 128.769501,67.093307 130.534317,72.009331 
	C132.054871,76.244949 134.314178,76.394920 140.551132,73.100052 
	C140.884201,73.025558 140.947510,73.520485 140.969543,73.769196 
	C140.347794,75.703636 139.704010,77.389374 138.798508,79.595184 
	C137.345764,81.235176 136.154724,82.355080 134.552032,83.581024 
	C131.532959,83.372635 128.925552,83.058205 126.320679,82.305786 
	C126.010056,77.663086 125.035988,73.365692 125.608276,69.285164 
	C126.012611,66.402115 125.539871,65.001289 123.138176,63.468735 
	C122.536049,61.179230 122.013130,59.255783 121.936859,57.263119 
	C123.585548,57.126633 124.787590,57.059361 125.989632,56.992088 
z"/>
<path fill="#275421" opacity="1.000000" stroke="none" 
	d="
M82.209518,16.610798 
	C84.774139,16.172365 87.093666,15.955663 89.598755,16.142435 
	C86.506508,19.363674 83.228699,22.181440 79.633324,24.997566 
	C78.892357,24.993153 78.468971,24.990385 77.831078,24.745306 
	C77.050583,23.607439 76.484589,22.711882 75.918587,21.816324 
	C77.933861,20.155060 79.949135,18.493793 82.209518,16.610798 
z"/>
<path fill="#39593A" opacity="1.000000" stroke="none" 
	d="
M75.601868,21.855110 
	C76.484589,22.711882 77.050583,23.607439 77.711746,25.059952 
	C76.535835,26.739063 75.264755,27.861217 73.851303,29.159601 
	C73.485909,29.541721 73.243164,29.720894 72.695694,29.747646 
	C71.607307,29.414879 70.803925,29.207813 70.001381,28.724384 
	C70.003479,28.263784 70.004738,28.079546 70.003433,27.577120 
	C70.005424,26.834579 70.009964,26.410227 70.007080,25.993265 
	C69.999649,26.000654 69.985229,26.015850 70.293663,25.951649 
	C71.063072,25.484682 71.524055,25.081915 71.985031,24.679148 
	C71.985031,24.679148 72.065735,24.845434 72.206940,24.871197 
	C72.440895,24.460945 72.533653,24.024933 72.626411,23.588921 
	C73.512657,23.023914 74.398895,22.458906 75.601868,21.855110 
z"/>
<path fill="#39593A" opacity="1.000000" stroke="none" 
	d="
M66.063766,23.062452 
	C66.073540,22.620171 66.083305,22.177889 66.120972,21.406052 
	C66.690239,21.285080 67.231606,21.493664 67.998566,21.896286 
	C68.632164,22.716566 69.040176,23.342810 69.738052,24.374033 
	C70.013695,25.191294 69.999458,25.603571 69.985229,26.015850 
	C69.985229,26.015850 69.999649,26.000654 69.671616,25.971096 
	C68.250305,24.981842 67.157036,24.022148 66.063766,23.062452 
z"/>
<path fill="#5B975B" opacity="1.000000" stroke="none" 
	d="
M67.935791,6.667181 
	C67.746559,6.383711 67.577232,5.766413 67.639847,5.074393 
	C67.899765,5.444233 67.927727,5.888793 67.935791,6.667181 
z"/>
<path fill="#243E2C" opacity="1.000000" stroke="none" 
	d="
M70.293655,25.951649 
	C69.999458,25.603571 70.013695,25.191294 70.035202,24.469915 
	C70.582886,24.187212 71.123299,24.213608 71.824371,24.459576 
	C71.524055,25.081915 71.063072,25.484682 70.293655,25.951649 
z"/>
<path fill="#243E2C" opacity="1.000000" stroke="none" 
	d="
M72.372101,23.740826 
	C72.533653,24.024933 72.440895,24.460945 72.123917,24.911804 
	C71.972389,24.582008 72.045082,24.237371 72.372101,23.740826 
z"/>
<path fill="#61846F" opacity="1.000000" stroke="none" 
	d="
M93.016869,145.313019 
	C94.501472,140.101410 99.623497,139.715591 102.942871,137.060104 
	C104.696480,135.657227 106.417427,134.213516 108.504364,132.305893 
	C109.505287,131.515320 110.154953,131.207092 110.804619,130.898880 
	C109.919197,135.675369 109.033775,140.451859 108.081070,145.609131 
	C104.611168,146.269135 101.208542,146.548355 97.407852,146.921539 
	C95.697914,146.553986 94.386040,146.092453 93.016869,145.313019 
z"/>
<path fill="#5F8768" opacity="1.000000" stroke="none" 
	d="
M140.033203,110.065460 
	C139.778732,111.167847 139.524246,112.270241 139.129822,113.684685 
	C134.009399,115.685120 129.126099,117.522377 126.090866,122.669754 
	C124.512581,123.568466 123.036804,124.145767 121.250244,124.871201 
	C120.658539,124.535515 120.377609,124.051682 120.246307,123.022354 
	C123.298935,119.759270 126.201935,117.041687 129.316544,114.178604 
	C129.778107,113.802544 130.028046,113.571983 130.550613,113.265640 
	C131.251053,112.835236 131.678879,112.480614 132.469849,112.054718 
	C135.233078,111.344109 137.633133,110.704788 140.033203,110.065460 
z"/>
<path fill="#424E40" opacity="1.000000" stroke="none" 
	d="
M129.104935,114.324104 
	C126.201935,117.041687 123.298935,119.759270 120.194916,122.743164 
	C118.915642,123.620308 117.837387,124.231140 116.254730,124.830170 
	C115.462959,124.468857 115.175583,124.119354 114.998596,123.525635 
	C115.427277,122.863663 115.745560,122.445923 116.369553,121.889793 
	C118.374901,119.805069 120.074539,117.858727 122.123077,115.904137 
	C123.947647,115.011375 125.423302,114.126862 127.249542,113.201797 
	C128.068893,113.119621 128.537643,113.077988 129.028046,113.358528 
	C129.068115,113.895172 129.086533,114.109642 129.104935,114.324104 
z"/>
<path fill="#566150" opacity="1.000000" stroke="none" 
	d="
M114.888199,123.769852 
	C115.175583,124.119354 115.462959,124.468857 116.010483,125.038834 
	C114.582092,126.957962 112.893547,128.656631 111.004807,130.627075 
	C110.154953,131.207092 109.505287,131.515320 108.643631,131.981812 
	C108.120163,131.873444 107.808701,131.606842 107.243896,131.170349 
	C106.989395,130.574875 106.988243,130.149292 106.965347,129.406464 
	C107.162766,128.691177 107.381927,128.293152 107.932053,127.383812 
	C109.517044,126.267159 110.771080,125.661827 112.336502,124.999756 
	C113.394653,124.551964 114.141426,124.160912 114.888199,123.769852 
z"/>
<path fill="#34493B" opacity="1.000000" stroke="none" 
	d="
M32.349197,124.267044 
	C27.169178,119.847343 21.889496,120.626801 16.079266,122.634567 
	C14.904096,121.496422 14.135431,120.601685 13.110072,119.408157 
	C15.963158,117.520874 18.497869,115.844185 21.425817,114.156464 
	C25.796799,114.898849 29.774544,115.652252 33.478561,116.353821 
	C32.747250,116.853233 31.523796,117.688728 29.357948,119.167786 
	C32.724979,120.748749 35.315578,121.965141 37.906181,123.181534 
	C39.848110,125.183998 41.790039,127.186462 43.563408,129.568024 
	C43.394852,129.947128 42.972080,130.085251 42.972080,130.085251 
	C39.541718,128.172516 36.111355,126.259773 32.349197,124.267044 
z"/>
<path fill="#639367" opacity="1.000000" stroke="none" 
	d="
M43.050041,130.490234 
	C42.972080,130.085251 43.394852,129.947128 43.610374,129.894608 
	C44.646191,130.213181 45.466484,130.584290 46.608788,131.049255 
	C48.323055,133.061417 49.487507,135.212357 51.157143,136.847412 
	C54.204716,139.831879 56.247543,142.855362 53.633324,147.416092 
	C50.590424,148.107117 47.731873,148.537125 44.466545,149.031311 
	C43.749180,143.028717 43.438591,136.961975 43.050041,130.490234 
z"/>
<path fill="#303C18" opacity="1.000000" stroke="none" 
	d="
M6.092864,9.397678 
	C6.704615,9.012760 7.392086,9.012218 8.536249,9.287597 
	C9.057526,9.748176 9.122108,9.932831 9.132814,10.538513 
	C9.052870,15.973680 9.026804,20.987818 9.000738,26.001957 
	C8.742410,25.986149 8.484080,25.970341 7.836510,25.934193 
	C7.021040,20.536589 6.594811,15.159321 6.092864,9.397678 
z"/>
<path fill="#336345" opacity="1.000000" stroke="none" 
	d="
M134.963699,83.474991 
	C136.154724,82.355080 137.345764,81.235176 138.816742,79.947556 
	C140.496887,79.575645 141.897110,79.371460 143.668625,79.113129 
	C142.562088,82.906700 134.973404,82.613655 138.328735,88.668716 
	C136.359497,88.653732 134.731094,88.313179 133.150742,87.634422 
	C133.787094,86.022476 134.375397,84.748734 134.963699,83.474991 
z"/>
<path fill="#2F4C3B" opacity="1.000000" stroke="none" 
	d="
M149.995911,109.168564 
	C149.694534,109.447403 149.237427,109.359535 149.181625,108.967667 
	C149.018417,107.365120 148.910995,106.154442 148.748657,104.615623 
	C146.402542,100.946373 144.111343,97.605263 141.864380,93.919685 
	C141.951279,93.114204 141.993927,92.653183 142.036591,92.192169 
	C142.036591,92.192169 142.504013,92.075928 142.744629,92.068329 
	C146.595642,96.598694 151.273209,100.529892 151.506866,107.406967 
	C151.121094,108.170807 150.709183,108.530266 149.995911,109.168564 
z"/>
<path fill="#3A5148" opacity="1.000000" stroke="none" 
	d="
M141.757919,92.011520 
	C141.993927,92.653183 141.951279,93.114204 141.444336,93.860725 
	C138.684860,94.223236 136.389648,94.300240 134.048920,94.021233 
	C133.977356,93.427391 133.951324,93.189545 134.039337,92.709167 
	C133.768295,91.347687 133.383224,90.228722 133.020691,88.825150 
	C133.063065,88.351234 133.082870,88.161934 133.102692,87.972626 
	C134.731094,88.313179 136.359497,88.653732 138.337219,88.996971 
	C139.617432,89.943390 140.548340,90.887131 141.757919,92.011520 
z"/>
<path fill="#5B895D" opacity="1.000000" stroke="none" 
	d="
M79.950897,24.999210 
	C83.228699,22.181440 86.506508,19.363674 89.931519,16.229488 
	C91.819748,15.318061 93.560760,14.723051 95.653290,14.059170 
	C97.503059,13.036095 99.001320,12.081890 100.736961,11.417867 
	C97.656456,17.457193 94.338562,23.206337 90.822533,29.094398 
	C90.383186,29.451382 90.185867,29.703762 89.777390,30.000626 
	C89.352707,30.022326 89.183090,30.033861 88.671051,30.030563 
	C87.872131,29.988613 87.415619,29.961500 86.729218,29.720224 
	C85.525948,28.785017 84.572647,28.034679 83.574013,27.350512 
	C82.386650,26.537050 81.160332,25.780449 79.950897,24.999210 
z"/>
<path fill="#2A4A33" opacity="1.000000" stroke="none" 
	d="
M91.020668,28.955482 
	C94.338562,23.206337 97.656456,17.457193 101.072281,11.367938 
	C103.227020,8.092793 105.283829,5.157759 107.670319,2.157334 
	C107.468765,4.097178 107.322258,6.320458 106.332901,8.066029 
	C103.562943,12.953192 100.444740,17.642979 97.143814,23.004993 
	C95.720207,25.366898 94.616730,27.134445 93.208397,28.917465 
	C92.275909,28.940453 91.648293,28.947969 91.020668,28.955482 
z"/>
<path fill="#676A74" opacity="1.000000" stroke="none" 
	d="
M93.513260,28.901995 
	C94.616730,27.134445 95.720207,25.366898 97.035904,23.321587 
	C101.222763,23.316441 103.075966,20.631895 103.726822,17.487553 
	C104.687531,12.846275 107.729630,11.034549 112.093292,10.481747 
	C110.943520,18.962528 109.494347,27.018814 107.629570,35.046089 
	C102.647064,32.978714 98.080162,30.940355 93.513260,28.901995 
z"/>
<path fill="#25302A" opacity="1.000000" stroke="none" 
	d="
M108.045181,35.075104 
	C109.494347,27.018814 110.943520,18.962528 112.495605,10.481194 
	C113.155441,8.732358 113.712372,7.408570 114.600220,6.075407 
	C114.931129,6.066031 115.074905,6.121865 115.089882,6.470738 
	C114.849251,9.220970 114.593636,11.622328 114.329414,14.450163 
	C113.530594,20.070717 112.759399,25.267776 111.944412,30.457964 
	C111.242798,34.926220 108.271423,39.152561 110.182961,43.844353 
	C108.043770,41.878517 106.251198,39.999802 104.846802,38.077934 
	C106.171715,37.048222 107.108452,36.061665 108.045181,35.075104 
z"/>
<path fill="#86AE84" opacity="1.000000" stroke="none" 
	d="
M114.338028,14.023686 
	C114.593636,11.622328 114.849251,9.220970 115.123207,6.401197 
	C116.144974,6.295156 117.148384,6.607529 118.452629,6.982512 
	C118.782768,7.483615 118.812080,7.922109 118.841019,8.691282 
	C118.567711,11.437831 117.975494,13.867710 118.080780,16.266983 
	C118.418175,23.955751 119.013748,31.633188 119.737625,39.657436 
	C119.988365,40.744705 120.011169,41.489532 120.016739,42.962959 
	C119.713142,44.816933 119.426788,45.942314 118.831131,46.885132 
	C117.031769,44.198174 114.477417,41.775536 114.277412,39.172035 
	C113.883873,34.049278 114.976952,28.830492 115.104919,23.642796 
	C115.183807,20.444677 114.615669,17.230598 114.338028,14.023686 
z"/>
<path fill="#C76362" opacity="1.000000" stroke="none" 
	d="
M27.314968,81.189087 
	C19.899830,80.871101 15.738637,75.219131 10.693578,71.026917 
	C9.595263,70.114265 8.596324,69.082008 7.212506,68.017609 
	C6.462852,66.685539 6.052307,65.440704 5.515268,63.672813 
	C5.259101,58.106045 5.129428,53.062317 5.335649,47.942287 
	C6.251654,47.560085 7.010481,47.395828 7.383177,46.925552 
	C10.010592,43.610222 13.173527,41.602055 17.108273,39.585419 
	C23.083248,36.523117 24.681965,41.697884 28.270231,42.883869 
	C29.349497,43.240589 30.457640,43.509933 30.690121,43.575619 
	C32.569702,42.064777 33.888695,41.004547 35.402027,40.031467 
	C35.849457,40.259422 36.064243,40.444653 36.196648,41.102066 
	C36.713303,45.127720 37.274040,48.725609 38.013710,53.471592 
	C32.162090,49.314743 28.337826,49.350273 28.430605,52.496445 
	C28.564003,57.020058 30.160410,61.500526 31.257397,66.295181 
	C32.688496,67.361206 33.994549,68.131454 35.113838,69.200302 
	C33.377285,72.042839 31.827494,74.586777 29.925304,77.199738 
	C29.090748,78.255562 28.608591,79.242371 28.024773,80.415810 
	C27.753086,80.831886 27.550373,81.027435 27.314968,81.189087 
z"/>
<path fill="#9E6D5B" opacity="1.000000" stroke="none" 
	d="
M4.999755,48.018593 
	C5.129428,53.062317 5.259101,58.106045 5.253623,63.463982 
	C4.563666,57.843639 4.008862,51.909081 3.541410,45.515739 
	C4.502568,42.750999 5.376372,40.445042 6.538396,38.285301 
	C6.217662,41.627216 5.608709,44.822903 4.999755,48.018593 
z"/>
<path fill="#CA6368" opacity="1.000000" stroke="none" 
	d="
M5.335649,47.942287 
	C5.608709,44.822903 6.217662,41.627216 6.748256,37.995625 
	C6.877740,36.522476 7.085584,35.485229 7.816639,34.135204 
	C11.707204,29.799070 15.074558,25.775717 18.628805,21.529060 
	C21.629393,24.533102 24.695431,27.714209 27.908707,30.738895 
	C28.683273,31.468000 29.945442,31.679104 31.294453,32.160194 
	C32.019920,32.180965 32.434315,32.169964 32.889164,32.143017 
	C32.929619,32.127071 32.928535,32.038906 32.875267,32.404007 
	C33.352032,33.810303 33.882065,34.851505 34.413780,36.237267 
	C34.679535,37.702660 34.943611,38.823486 35.207687,39.944317 
	C33.888695,41.004547 32.569702,42.064777 30.690121,43.575619 
	C30.457640,43.509933 29.349497,43.240589 28.270231,42.883869 
	C24.681965,41.697884 23.083248,36.523117 17.108273,39.585419 
	C13.173527,41.602055 10.010592,43.610222 7.383177,46.925552 
	C7.010481,47.395828 6.251654,47.560085 5.335649,47.942287 
z"/>
<path fill="#BC686B" opacity="1.000000" stroke="none" 
	d="
M30.983376,32.128422 
	C29.945442,31.679104 28.683273,31.468000 27.908707,30.738895 
	C24.695431,27.714209 21.629393,24.533102 18.628805,21.529060 
	C15.074558,25.775717 11.707204,29.799070 7.968556,33.849808 
	C8.076650,31.519951 8.556037,29.162718 9.018082,26.403721 
	C9.026804,20.987818 9.052870,15.973680 9.479876,10.555014 
	C19.505192,14.989443 25.580841,23.235781 30.983376,32.128422 
z"/>
<path fill="#794240" opacity="1.000000" stroke="none" 
	d="
M31.294453,32.160194 
	C25.580841,23.235781 19.505192,14.989443 9.533754,10.133986 
	C9.122108,9.932831 9.057526,9.748176 8.880189,9.292336 
	C8.807325,8.826537 8.847216,8.631923 8.935482,8.141725 
	C12.163293,9.045211 15.342726,10.244281 18.961742,11.895891 
	C19.927492,12.571751 20.453661,12.795073 20.979830,13.018394 
	C20.979830,13.018394 20.999378,13.002014 21.012115,13.372547 
	C23.369740,16.477333 25.714624,19.211588 28.059509,21.945843 
	C28.059509,21.945843 28.004204,22.000000 28.077606,22.319000 
	C29.782290,25.422138 31.413570,28.206276 32.999065,31.283234 
	C32.918423,31.770357 32.883564,31.964659 32.848709,32.158962 
	C32.434315,32.169964 32.019920,32.180965 31.294453,32.160194 
z"/>
<path fill="#686971" opacity="1.000000" stroke="none" 
	d="
M38.033592,122.836517 
	C35.315578,121.965141 32.724979,120.748749 29.357948,119.167786 
	C31.523796,117.688728 32.747250,116.853233 33.478561,116.353821 
	C29.774544,115.652252 25.796799,114.898849 21.187611,113.922287 
	C16.895893,113.868690 14.139977,112.570435 12.917441,108.591881 
	C17.084854,101.532997 21.158808,94.817360 25.232761,88.101715 
	C25.830019,87.316124 26.427277,86.530525 27.362837,85.234695 
	C29.768816,82.045547 31.836493,79.366623 34.205254,76.652344 
	C35.566879,75.714394 36.627426,74.811783 37.901566,74.126251 
	C38.416809,76.574493 38.718456,78.805656 39.287010,81.282608 
	C41.105320,82.042145 42.622604,82.730019 44.213585,83.041786 
	C55.726810,85.297958 67.254929,87.478119 78.787239,89.684052 
	C78.277420,91.249397 77.959465,92.225632 77.641518,93.201859 
	C79.421761,93.392754 81.202003,93.583649 83.346474,93.827652 
	C84.884674,93.593910 86.058640,93.307053 87.539062,93.097443 
	C89.219185,94.158279 90.592865,95.141853 91.985062,96.399246 
	C92.001755,96.856018 91.999924,97.038971 92.043793,97.486015 
	C92.105209,98.106804 92.120926,98.463509 91.769112,98.978424 
	C86.298820,100.374390 81.196060,101.612137 76.093307,102.849884 
	C75.723640,103.380867 75.419937,104.308510 74.974289,104.382622 
	C69.365257,105.315437 63.749672,106.245377 58.103706,106.899338 
	C56.186836,107.121361 54.065372,106.913681 52.234936,106.306686 
	C45.442356,104.054214 40.913498,106.971031 41.660950,114.149178 
	C42.068569,118.063736 41.077187,120.438217 38.033592,122.836517 
z"/>
<path fill="#2F2933" opacity="1.000000" stroke="none" 
	d="
M76.432327,103.019089 
	C81.196060,101.612137 86.298820,100.374390 92.128174,99.026672 
	C93.585052,99.401688 94.315331,99.886650 95.423096,100.622299 
	C92.642181,101.922676 90.334282,103.001862 88.026382,104.081055 
	C86.205856,103.862770 84.385323,103.644478 82.279305,103.650162 
	C80.252991,103.645515 78.512177,103.416901 76.432327,103.019089 
z"/>
<path fill="#E1DDDC" opacity="1.000000" stroke="none" 
	d="
M88.119621,104.437027 
	C90.334282,103.001862 92.642181,101.922676 95.423096,100.622299 
	C94.315331,99.886650 93.585052,99.401688 92.495712,98.868462 
	C92.120926,98.463509 92.105209,98.106804 92.429398,97.431831 
	C95.556946,95.505386 98.344582,93.897224 101.541153,92.223083 
	C106.162468,91.602493 110.374840,91.047874 114.364655,90.815521 
	C111.823608,93.151337 109.505127,95.164864 106.128853,98.097069 
	C109.909561,98.649055 112.132362,98.987381 114.359291,99.295906 
	C119.297302,99.980026 123.649590,96.210114 124.084930,90.752182 
	C124.142975,90.568108 124.011673,90.204742 124.319939,90.272949 
	C125.375694,90.632507 126.123192,90.923859 126.813133,91.565536 
	C126.360115,93.440041 125.264000,96.057068 125.676262,96.321373 
	C130.420853,99.363228 126.919266,102.649773 126.008575,105.614426 
	C124.923355,109.147285 123.213448,112.488274 121.774170,115.912384 
	C120.074539,117.858727 118.374901,119.805069 115.990738,121.891869 
	C114.212517,123.040382 113.118813,124.048439 112.025116,125.056488 
	C110.771080,125.661827 109.517044,126.267159 108.023483,127.053802 
	C101.006035,128.056076 94.186859,129.073700 88.512787,123.084183 
	C87.693924,119.181755 87.164856,115.447685 86.698479,111.257614 
	C87.245071,108.798737 87.728966,106.795868 88.119621,104.437027 
M114.314285,117.172562 
	C113.252739,116.447906 112.191185,115.723251 111.129631,114.998604 
	C110.860352,115.701424 110.591064,116.404243 110.321777,117.107063 
	C111.482109,117.281914 112.642441,117.456772 114.314285,117.172562 
M113.351555,111.899933 
	C113.325157,112.468399 113.298759,113.036865 113.272362,113.605331 
	C113.699898,113.438545 114.127434,113.271759 114.554970,113.104980 
	C114.301315,112.629494 114.047668,112.153999 113.351555,111.899933 
z"/>
<path fill="#27492A" opacity="1.000000" stroke="none" 
	d="
M25.056011,87.921494 
	C21.158808,94.817360 17.084854,101.532997 12.694555,108.853821 
	C10.902020,112.716370 9.425828,115.973740 7.949635,119.231102 
	C7.909602,117.385941 7.172166,115.156067 7.943218,113.758339 
	C12.785756,104.979988 17.964077,96.386864 23.282269,87.485794 
	C23.981880,87.406487 24.430571,87.573883 25.056011,87.921494 
z"/>
<path fill="#58695D" opacity="1.000000" stroke="none" 
	d="
M7.950734,119.583237 
	C9.425828,115.973740 10.902020,112.716370 12.601099,109.197067 
	C14.139977,112.570435 16.895893,113.868690 20.794374,113.933319 
	C18.497869,115.844185 15.963158,117.520874 13.110072,119.408157 
	C14.135431,120.601685 14.904096,121.496422 15.682538,122.702972 
	C14.319192,122.896194 12.946069,122.777611 11.339585,122.827606 
	C7.648014,124.456238 8.054354,121.933594 7.950734,119.583237 
z"/>
<path fill="#619968" opacity="1.000000" stroke="none" 
	d="
M119.140442,47.067696 
	C119.426788,45.942314 119.713142,44.816933 120.036865,43.334949 
	C122.186203,47.465565 124.298172,51.952785 126.199883,56.716045 
	C124.787590,57.059361 123.585548,57.126633 121.662659,57.106049 
	C120.600960,56.055939 120.260094,55.093689 120.102112,53.882019 
	C119.941689,52.412941 119.598396,51.193287 119.247543,49.609276 
	C119.206802,48.519180 119.173622,47.793438 119.140442,47.067696 
z"/>
<path fill="#683337" opacity="1.000000" stroke="none" 
	d="
M33.904167,76.687698 
	C31.836493,79.366623 29.768816,82.045547 27.454485,84.949493 
	C26.874434,84.886551 26.541037,84.598579 25.992052,84.059113 
	C26.181471,83.106438 26.586475,82.405273 27.153225,81.446594 
	C27.550373,81.027435 27.753086,80.831886 28.275566,80.213379 
	C29.177919,78.926437 29.727810,78.028572 30.277702,77.130707 
	C31.827494,74.586777 33.377285,72.042839 35.267494,69.059929 
	C36.325275,68.404243 37.042633,68.187531 37.795135,68.348816 
	C37.723431,69.474098 37.616573,70.221390 37.227036,71.102478 
	C35.930954,73.053421 34.917557,74.870560 33.904167,76.687698 
z"/>
<path fill="#354A41" opacity="1.000000" stroke="none" 
	d="
M140.408630,109.960144 
	C137.633133,110.704788 135.233078,111.344109 132.410095,111.986923 
	C131.987183,111.990410 131.866257,111.856087 131.974792,111.535431 
	C134.651169,109.201126 137.219009,107.187469 139.786865,105.173805 
	C139.620056,104.786827 139.453262,104.399849 139.286469,104.012871 
	C141.507172,104.374191 143.727875,104.735504 146.088867,105.328705 
	C146.476501,106.636124 146.723862,107.711662 146.971222,108.787209 
	C144.908844,109.143082 142.846451,109.498955 140.408630,109.960144 
z"/>
<path fill="#3C6B4B" opacity="1.000000" stroke="none" 
	d="
M147.264252,108.905472 
	C146.723862,107.711662 146.476501,106.636124 146.447830,105.297852 
	C147.378876,105.004669 148.091232,104.974220 148.803589,104.943764 
	C148.910995,106.154442 149.018417,107.365120 148.962738,108.888596 
	C148.385513,109.142166 147.971405,109.082947 147.264252,108.905472 
z"/>
<path fill="#243E2C" opacity="1.000000" stroke="none" 
	d="
M65.857529,23.321106 
	C67.157036,24.022148 68.250305,24.981842 69.679047,25.963707 
	C70.009964,26.410227 70.005424,26.834579 69.698502,27.679197 
	C68.797508,28.678795 68.198883,29.258125 67.209198,29.809597 
	C63.713936,31.293121 60.486557,32.599957 57.540489,34.373955 
	C54.648590,36.115341 52.042618,38.331562 49.311169,40.339401 
	C48.967037,40.025921 48.622906,39.712440 48.063255,39.121639 
	C49.951813,37.266903 52.055882,35.689491 54.300117,33.822395 
	C54.440277,33.532715 54.433678,33.331966 54.672157,33.275925 
	C56.329273,31.833874 57.747906,30.447861 59.166542,29.061846 
	C61.328125,27.234482 63.489708,25.407120 65.857529,23.321106 
z"/>
<path fill="#648B68" opacity="1.000000" stroke="none" 
	d="
M58.790993,29.065277 
	C57.747906,30.447861 56.329273,31.833874 54.582134,33.231407 
	C55.640903,31.851521 57.028175,30.460114 58.790993,29.065277 
z"/>
<path fill="#735850" opacity="1.000000" stroke="none" 
	d="
M33.044849,30.990412 
	C31.413570,28.206276 29.782290,25.422138 28.103073,22.291916 
	C29.798500,23.220438 31.541861,24.495050 33.552063,25.954563 
	C34.123234,26.903061 34.427555,27.666660 34.650810,28.896683 
	C34.061443,29.905542 33.553146,30.447977 33.044849,30.990412 
z"/>
<path fill="#735850" opacity="1.000000" stroke="none" 
	d="
M28.074696,21.587620 
	C25.714624,19.211588 23.369740,16.477333 21.001427,13.382774 
	C23.348627,15.758111 25.719252,18.493753 28.074696,21.587620 
z"/>
<path fill="#735850" opacity="1.000000" stroke="none" 
	d="
M20.778170,12.812142 
	C20.453661,12.795073 19.927492,12.571751 19.204910,12.134365 
	C19.531170,12.148829 20.053839,12.377360 20.778170,12.812142 
z"/>
<path fill="#696872" opacity="1.000000" stroke="none" 
	d="
M72.980698,29.873346 
	C73.243164,29.720894 73.485909,29.541721 74.091919,29.192499 
	C74.474899,29.049168 74.960487,29.046663 75.100388,29.189968 
	C75.447365,29.503109 75.676224,29.635185 76.037384,30.064936 
	C79.935738,34.956135 84.322685,34.647259 89.344604,31.987885 
	C90.149857,31.980122 90.610199,31.967655 91.373962,32.013763 
	C92.495285,32.657021 93.313187,33.241699 93.740891,33.894550 
	C91.581169,34.735592 89.466820,35.128548 88.111938,36.358265 
	C85.032196,39.153481 82.063080,42.160370 79.552750,45.464005 
	C77.636047,47.986420 76.203064,50.986408 75.070175,53.969635 
	C73.186615,58.929619 78.556915,61.631802 78.930176,65.968071 
	C77.865097,66.259651 77.084503,66.453156 76.073181,66.369095 
	C70.182945,64.523705 64.523460,62.955872 58.863972,61.388042 
	C58.204628,61.043312 57.545288,60.698586 56.885944,60.353855 
	C59.246731,59.641457 61.607517,58.929062 63.968307,58.216663 
	C63.439529,57.434120 62.910751,56.651577 62.381973,55.869038 
	C59.102654,55.713486 55.693298,49.051380 52.525078,56.850159 
	C52.354031,57.271206 51.304577,57.730923 50.860828,57.582848 
	C47.436695,56.440266 46.880379,59.218204 45.294674,61.089695 
	C43.585789,63.106564 41.052048,64.424538 38.666321,65.723907 
	C37.620483,62.459175 37.370285,59.816902 40.483131,57.751198 
	C41.381519,57.155018 41.439903,55.293018 42.130829,53.685863 
	C42.820381,49.009155 44.915844,44.318905 39.682335,40.869610 
	C39.322483,40.099781 39.143349,39.554798 39.175903,38.842873 
	C39.871944,38.155609 40.356304,37.635296 40.840660,37.114979 
	C43.278526,39.045525 45.716393,40.976070 48.845886,43.070396 
	C55.617252,46.046173 57.005188,45.714268 59.929859,39.934708 
	C61.001324,37.817341 61.329704,35.323948 61.998531,33.001045 
	C62.000000,33.000000 62.002068,32.997059 62.417847,32.989029 
	C66.215981,31.945118 69.598343,30.909233 72.980698,29.873346 
z"/>
<path fill="#5C6667" opacity="1.000000" stroke="none" 
	d="
M61.997063,33.002087 
	C61.329704,35.323948 61.001324,37.817341 59.929859,39.934708 
	C57.005188,45.714268 55.617252,46.046173 49.197014,43.056736 
	C48.946651,42.237865 49.036789,41.596439 49.219048,40.647209 
	C52.042618,38.331562 54.648590,36.115341 57.540489,34.373955 
	C60.486557,32.599957 63.713936,31.293121 67.544395,29.806858 
	C68.847282,29.554901 69.423912,29.277822 70.000549,29.000746 
	C70.803925,29.207813 71.607307,29.414879 72.695694,29.747646 
	C69.598343,30.909233 66.215981,31.945118 62.382160,32.922009 
	C61.930695,32.863014 61.758671,32.850388 61.758671,32.850388 
	C61.758671,32.850388 61.997063,33.002087 61.997063,33.002087 
z"/>
<path fill="#6F575B" opacity="1.000000" stroke="none" 
	d="
M40.712582,36.809727 
	C40.356304,37.635296 39.871944,38.155609 38.907494,38.675545 
	C37.614666,37.444412 36.801926,36.213669 35.838776,34.714012 
	C34.768421,33.643040 33.848480,32.840973 32.928535,32.038906 
	C32.928535,32.038906 32.929619,32.127071 32.889164,32.143017 
	C32.883564,31.964659 32.918423,31.770357 32.999065,31.283234 
	C33.553146,30.447977 34.061443,29.905542 34.780613,29.179140 
	C35.203876,29.237715 35.421440,29.475534 35.822250,29.872566 
	C37.528393,32.192493 39.056450,34.348484 40.712582,36.809727 
z"/>
<path fill="#202913" opacity="1.000000" stroke="none" 
	d="
M123.217384,63.834785 
	C125.539871,65.001289 126.012611,66.402115 125.608276,69.285164 
	C125.035988,73.365692 126.010056,77.663086 126.198685,82.535805 
	C126.021523,83.367897 125.968880,83.531967 125.719528,83.515694 
	C125.042885,82.551147 124.562958,81.766930 123.924789,80.891716 
	C123.766541,80.800713 123.444832,80.628822 123.389084,80.292839 
	C122.264534,79.276245 121.195732,78.595627 120.048584,77.669350 
	C119.682800,77.257820 119.395363,77.091949 119.076607,76.560364 
	C116.646637,73.089676 115.677979,76.706406 113.701996,77.256645 
	C112.026283,77.329178 110.705360,77.400993 109.384430,77.472809 
	C109.726883,77.675102 110.069344,77.877403 110.411797,78.079697 
	C113.658897,74.068199 116.905998,70.056702 120.455002,65.950897 
	C121.577065,65.182648 122.397224,64.508713 123.217384,63.834785 
z"/>
<path fill="#27352A" opacity="1.000000" stroke="none" 
	d="
M123.138176,63.468731 
	C122.397224,64.508713 121.577065,65.182648 120.477585,65.539360 
	C117.859688,59.283352 115.521126,53.344570 113.578842,47.580433 
	C115.181709,48.562355 116.388298,49.369629 117.643616,50.515160 
	C118.434639,51.946095 119.176933,53.038769 119.919228,54.131443 
	C120.260094,55.093689 120.600960,56.055939 121.216019,57.175262 
	C122.013130,59.255783 122.536049,61.179230 123.138176,63.468731 
z"/>
<path fill="#2D4D30" opacity="1.000000" stroke="none" 
	d="
M125.916229,83.696030 
	C125.968880,83.531967 126.021523,83.367897 126.196167,82.973801 
	C128.925552,83.058205 131.532959,83.372635 134.552032,83.581024 
	C134.375397,84.748734 133.787094,86.022476 133.150742,87.634422 
	C133.082870,88.161934 133.063065,88.351234 132.699249,88.757622 
	C131.184937,88.440613 130.014648,87.906517 128.624359,87.144180 
	C127.614021,86.229889 126.823647,85.543831 126.007568,84.566978 
	C125.959984,84.082802 125.938103,83.889412 125.916229,83.696030 
z"/>
<path fill="#314734" opacity="1.000000" stroke="none" 
	d="
M74.960487,29.046663 
	C74.960487,29.046663 74.474899,29.049168 74.234283,29.016270 
	C75.264755,27.861217 76.535835,26.739063 77.926247,25.302261 
	C78.468971,24.990385 78.892357,24.993153 79.633324,24.997566 
	C81.160332,25.780449 82.386650,26.537050 83.574013,27.350512 
	C84.572647,28.034679 85.525948,28.785017 86.436409,29.859159 
	C82.896156,29.808147 79.418823,29.404039 75.695938,29.005453 
	C75.450401,29.010975 74.960487,29.046663 74.960487,29.046663 
z"/>
<path fill="#586464" opacity="1.000000" stroke="none" 
	d="
M70.001381,28.724384 
	C69.423912,29.277822 68.847282,29.554901 67.935455,29.834717 
	C68.198883,29.258125 68.797508,28.678795 69.701065,27.997387 
	C70.004738,28.079546 70.003479,28.263784 70.001381,28.724384 
z"/>
<path fill="#354A41" opacity="1.000000" stroke="none" 
	d="
M132.046936,112.058205 
	C131.678879,112.480614 131.251053,112.835236 130.438568,113.121155 
	C130.053909,113.052452 129.834595,112.768005 130.053543,112.584991 
	C130.803741,112.220016 131.335007,112.038055 131.866257,111.856087 
	C131.866257,111.856087 131.987183,111.990410 132.046936,112.058205 
z"/>
<path fill="#354A41" opacity="1.000000" stroke="none" 
	d="
M129.316544,114.178604 
	C129.086533,114.109642 129.068115,113.895172 129.232666,113.283844 
	C129.415634,112.886993 129.834595,112.768005 129.834595,112.768005 
	C129.834595,112.768005 130.053909,113.052452 130.165955,113.196938 
	C130.028046,113.571983 129.778107,113.802544 129.316544,114.178604 
z"/>
<path fill="#656B70" opacity="1.000000" stroke="none" 
	d="
M130.053543,112.584991 
	C129.834595,112.768005 129.415634,112.886993 129.211014,112.961678 
	C128.537643,113.077988 128.068893,113.119621 127.273956,112.778885 
	C129.555359,106.479469 128.399994,99.069984 134.094452,94.377235 
	C136.389648,94.300240 138.684860,94.223236 141.400101,94.205193 
	C144.111343,97.605263 146.402542,100.946373 148.748657,104.615623 
	C148.091232,104.974220 147.378876,105.004669 146.307556,105.065979 
	C143.727875,104.735504 141.507172,104.374191 139.286469,104.012871 
	C139.453262,104.399849 139.620056,104.786827 139.786865,105.173805 
	C137.219009,107.187469 134.651169,109.201126 131.974792,111.535431 
	C131.335007,112.038055 130.803741,112.220016 130.053543,112.584991 
z"/>
<path fill="#504E50" opacity="1.000000" stroke="none" 
	d="
M134.048920,94.021233 
	C128.399994,99.069984 129.555359,106.479469 126.923370,112.819427 
	C125.423302,114.126862 123.947647,115.011375 122.123085,115.904144 
	C123.213448,112.488274 124.923355,109.147285 126.008575,105.614426 
	C126.919266,102.649773 130.420853,99.363228 125.676262,96.321373 
	C125.264000,96.057068 126.360115,93.440041 126.912018,91.152374 
	C127.149956,90.117470 127.231453,89.846046 127.471619,89.473534 
	C127.822456,89.195297 128.001892,89.006065 128.371429,89.087669 
	C130.357956,90.564308 132.141632,91.757996 133.925308,92.951691 
	C133.951324,93.189545 133.977356,93.427391 134.048920,94.021233 
z"/>
<path fill="#D2D1CE" opacity="1.000000" stroke="none" 
	d="
M112.336502,124.999756 
	C113.118813,124.048439 114.212517,123.040382 115.685028,122.030251 
	C115.745560,122.445923 115.427277,122.863663 114.998596,123.525635 
	C114.141426,124.160912 113.394653,124.551964 112.336502,124.999756 
z"/>
<path fill="#575E5B" opacity="1.000000" stroke="none" 
	d="
M134.039337,92.709167 
	C132.141632,91.757996 130.357956,90.564308 128.436203,88.900894 
	C128.480209,88.078255 128.662277,87.725342 128.844345,87.372421 
	C130.014648,87.906517 131.184937,88.440613 132.676697,89.042236 
	C133.383224,90.228722 133.768295,91.347687 134.039337,92.709167 
z"/>
<path fill="#3C414A" opacity="1.000000" stroke="none" 
	d="
M94.131088,33.826378 
	C93.313187,33.241699 92.495285,32.657021 91.296669,31.741999 
	C90.621452,30.937925 90.326950,30.464193 90.032448,29.990461 
	C90.185867,29.703762 90.383186,29.451382 90.822533,29.094400 
	C91.648293,28.947969 92.275909,28.940453 93.208397,28.917467 
	C98.080162,30.940355 102.647064,32.978714 107.629578,35.046089 
	C107.108452,36.061665 106.171715,37.048222 104.540710,38.034416 
	C102.595131,37.674816 101.343826,37.315582 99.912514,36.656696 
	C97.854797,35.534447 95.977097,34.711853 94.100449,33.871628 
	C94.101501,33.853996 94.131088,33.826374 94.131088,33.826378 
z"/>
<path fill="#5C6667" opacity="1.000000" stroke="none" 
	d="
M75.941483,28.999931 
	C79.418823,29.404039 82.896156,29.808147 86.666306,30.073322 
	C87.415619,29.961500 87.872131,29.988613 88.667458,30.353085 
	C89.004074,31.121357 89.001884,31.552267 88.999695,31.983179 
	C84.322685,34.647259 79.935738,34.956135 76.037933,29.883846 
	C75.927948,29.367323 75.941483,28.999931 75.941483,28.999931 
z"/>
<path fill="#586464" opacity="1.000000" stroke="none" 
	d="
M89.344604,31.987885 
	C89.001884,31.552267 89.004074,31.121357 89.009872,30.367922 
	C89.183090,30.033861 89.352707,30.022326 89.777390,30.000626 
	C90.326950,30.464193 90.621452,30.937925 90.993256,31.683422 
	C90.610199,31.967655 90.149857,31.980122 89.344604,31.987885 
z"/>
<path fill="#6B6B75" opacity="1.000000" stroke="none" 
	d="
M100.092522,36.956352 
	C101.343826,37.315582 102.595131,37.674816 104.152527,38.077568 
	C106.251198,39.999802 108.043770,41.878517 110.269539,43.794785 
	C110.702728,43.832340 110.872231,43.941753 111.140396,44.138184 
	C111.623047,44.719700 111.837524,45.104786 112.102615,45.669090 
	C112.496330,46.367470 112.839447,46.886631 113.182564,47.405788 
	C115.521126,53.344570 117.859688,59.283352 120.175674,65.633675 
	C116.905998,70.056702 113.658897,74.068199 110.411797,78.079697 
	C110.069344,77.877403 109.726883,77.675102 109.384430,77.472809 
	C110.705360,77.400993 112.026283,77.329178 113.698685,77.673698 
	C114.040596,80.056900 114.031044,82.023781 113.866440,84.331589 
	C112.129066,85.771004 110.675476,87.186874 108.934090,87.893082 
	C106.365814,88.934639 103.592621,89.470901 100.571251,90.152344 
	C99.141808,89.334015 98.047813,88.585709 96.959251,87.702118 
	C96.964691,87.566841 96.986237,87.293068 97.286415,87.004677 
	C97.754692,84.481842 97.922798,82.247391 98.260277,79.881622 
	C98.647446,79.563469 98.841972,79.354919 99.342117,79.085907 
	C100.106895,78.983002 100.542770,78.918861 101.227631,79.065125 
	C102.410889,78.688187 104.134926,78.123657 104.152672,77.509850 
	C104.278137,73.166298 104.053642,68.812630 103.940742,64.462189 
	C103.260696,64.450394 102.580650,64.438591 101.900597,64.426796 
	C101.586525,65.577248 101.206108,66.714371 100.971748,67.880836 
	C100.431526,70.569611 99.163063,72.043556 96.142960,71.291763 
	C94.876572,70.976524 93.520714,71.020714 91.976707,70.787491 
	C91.502625,70.439468 91.257355,70.205444 90.890144,69.641174 
	C89.706406,68.992188 88.644615,68.673447 87.243591,68.281830 
	C84.341125,67.429298 81.777901,66.649651 79.214676,65.869995 
	C78.556915,61.631802 73.186615,58.929619 75.070175,53.969635 
	C76.203064,50.986408 77.636047,47.986420 79.552750,45.464005 
	C82.063080,42.160370 85.032196,39.153481 88.111938,36.358265 
	C89.466820,35.128548 91.581169,34.735592 93.740891,33.894547 
	C94.131088,33.826374 94.101501,33.853996 94.074585,34.256638 
	C94.205750,35.861317 94.363838,37.063354 94.536438,38.375805 
	C96.697365,37.823734 98.394943,37.390041 100.092522,36.956352 
z"/>
<path fill="#93A98F" opacity="1.000000" stroke="none" 
	d="
M113.578842,47.580433 
	C112.839447,46.886631 112.496330,46.367470 111.980835,45.349884 
	C111.496384,44.548225 111.184311,44.244987 110.872231,43.941750 
	C110.872231,43.941753 110.702728,43.832340 110.616150,43.881905 
	C108.271423,39.152561 111.242798,34.926220 111.944412,30.457964 
	C112.759399,25.267776 113.530594,20.070717 114.329414,14.450163 
	C114.615669,17.230598 115.183807,20.444677 115.104919,23.642796 
	C114.976952,28.830492 113.883873,34.049278 114.277412,39.172035 
	C114.477417,41.775536 117.031769,44.198174 118.831131,46.885132 
	C119.173622,47.793438 119.206802,48.519180 118.830780,49.655945 
	C118.146019,50.103619 117.870445,50.140263 117.594879,50.176907 
	C116.388298,49.369629 115.181709,48.562355 113.578842,47.580433 
z"/>
<path fill="#B35A5E" opacity="1.000000" stroke="none" 
	d="
M31.132351,65.999413 
	C30.160410,61.500526 28.564003,57.020058 28.430605,52.496445 
	C28.337826,49.350273 32.162090,49.314743 38.013710,53.471592 
	C37.274040,48.725609 36.713303,45.127720 36.441826,41.353615 
	C37.847664,43.447403 38.964241,45.717403 40.266319,48.283405 
	C40.623241,49.739479 40.794659,50.899555 40.637108,52.168365 
	C37.963810,54.347168 35.619480,56.417225 33.275150,58.487286 
	C33.077045,58.177559 32.878937,57.867836 32.680828,57.558113 
	C32.164669,60.371880 31.648512,63.185646 31.132351,65.999413 
z"/>
<path fill="#733B43" opacity="1.000000" stroke="none" 
	d="
M31.257397,66.295181 
	C31.648512,63.185646 32.164669,60.371880 32.680828,57.558113 
	C32.878937,57.867836 33.077045,58.177559 33.275150,58.487286 
	C35.619480,56.417225 37.963810,54.347168 40.684380,52.440529 
	C41.334877,53.073086 41.609138,53.542217 41.883396,54.011353 
	C41.439903,55.293018 41.381519,57.155018 40.483131,57.751198 
	C37.370285,59.816902 37.620483,62.459175 38.660805,66.030586 
	C38.862206,67.070930 38.857273,67.481087 38.579861,67.911011 
	C38.124916,67.944122 37.942451,67.957474 37.759991,67.970825 
	C37.042633,68.187531 36.325275,68.404243 35.454262,68.761337 
	C33.994549,68.131454 32.688496,67.361206 31.257397,66.295181 
z"/>
<path fill="#71333B" opacity="1.000000" stroke="none" 
	d="
M40.080818,47.987404 
	C38.964241,45.717403 37.847664,43.447403 36.485905,40.925854 
	C36.064243,40.444653 35.849457,40.259422 35.402027,40.031467 
	C34.943611,38.823486 34.679535,37.702660 34.604286,36.119549 
	C35.191803,35.432487 35.590496,35.207706 35.989189,34.982922 
	C36.801926,36.213669 37.614666,37.444412 38.695808,38.842487 
	C39.143349,39.554798 39.322483,40.099781 39.713715,41.230736 
	C39.977478,43.873604 40.029148,45.930504 40.080818,47.987404 
z"/>
<path fill="#AB6F60" opacity="1.000000" stroke="none" 
	d="
M29.925303,77.199738 
	C29.727810,78.028572 29.177919,78.926437 28.377232,80.026733 
	C28.608591,79.242371 29.090748,78.255562 29.925303,77.199738 
z"/>
<path fill="#794240" opacity="1.000000" stroke="none" 
	d="
M35.838776,34.714012 
	C35.590496,35.207706 35.191803,35.432487 34.602604,35.774986 
	C33.882065,34.851505 33.352032,33.810303 32.875267,32.404007 
	C33.848480,32.840973 34.768421,33.643040 35.838776,34.714012 
z"/>
<path fill="#6B6975" opacity="1.000000" stroke="none" 
	d="
M38.852345,67.891251 
	C38.857273,67.481087 38.862206,67.070930 38.872650,66.354088 
	C41.052048,64.424538 43.585789,63.106564 45.294674,61.089695 
	C46.880379,59.218204 47.436695,56.440266 50.860828,57.582848 
	C51.304577,57.730923 52.354031,57.271206 52.525078,56.850159 
	C55.693298,49.051380 59.102654,55.713486 62.381973,55.869038 
	C62.910751,56.651577 63.439529,57.434120 63.968307,58.216663 
	C61.607517,58.929062 59.246731,59.641457 56.885944,60.353855 
	C57.545288,60.698586 58.204628,61.043312 58.863972,61.388042 
	C64.523460,62.955872 70.182945,64.523705 75.894096,66.620132 
	C74.685638,68.094490 73.425522,69.040245 71.474625,70.504456 
	C77.014755,68.871895 81.279869,69.560097 85.038933,73.117104 
	C85.060417,73.700386 85.075577,73.933426 85.019379,74.502670 
	C84.310631,76.553658 83.673241,78.268425 82.813385,80.250961 
	C81.726379,82.670845 80.861839,84.822952 79.587540,86.978485 
	C77.391472,86.654922 75.613586,86.269531 73.817497,86.010391 
	C62.220581,84.337173 50.619690,82.691521 39.020103,81.036819 
	C38.718456,78.805656 38.416809,76.574493 37.936668,73.805130 
	C37.794724,72.836761 37.831280,72.406593 38.200340,71.964233 
	C42.421684,70.896027 39.840122,69.330940 38.852345,67.891251 
z"/>
<path fill="#484853" opacity="1.000000" stroke="none" 
	d="
M39.287010,81.282608 
	C50.619690,82.691521 62.220581,84.337173 73.817497,86.010391 
	C75.613586,86.269531 77.391472,86.654922 79.939682,86.993729 
	C81.399063,86.960205 82.096527,86.914879 82.839897,87.305389 
	C82.917953,89.752335 82.950104,91.763428 82.982246,93.774536 
	C81.202003,93.583649 79.421761,93.392754 77.641518,93.201859 
	C77.959465,92.225632 78.277420,91.249397 78.787239,89.684052 
	C67.254929,87.478119 55.726810,85.297958 44.213585,83.041786 
	C42.622604,82.730019 41.105320,82.042145 39.287010,81.282608 
z"/>
<path fill="#514D29" opacity="1.000000" stroke="none" 
	d="
M83.346474,93.827652 
	C82.950104,91.763428 82.917953,89.752335 82.868042,86.880859 
	C82.912132,84.008057 82.973984,81.995621 83.035843,79.983185 
	C83.673241,78.268425 84.310631,76.553658 85.369423,74.456207 
	C86.025444,74.050247 86.260071,74.026962 86.820885,73.939796 
	C87.805344,73.786659 88.463615,73.697395 89.121689,73.903305 
	C89.115891,74.392792 89.110306,74.587112 88.779648,74.967041 
	C84.851158,80.541542 83.569832,86.106369 87.148865,92.288483 
	C87.122635,92.535568 87.232613,93.020195 87.232613,93.020195 
	C86.058640,93.307053 84.884674,93.593910 83.346474,93.827652 
z"/>
<path fill="#60582B" opacity="1.000000" stroke="none" 
	d="
M96.953812,87.837402 
	C98.047813,88.585709 99.141808,89.334015 100.609955,90.494621 
	C101.033470,91.367630 101.082840,91.828339 101.132217,92.289047 
	C98.344582,93.897224 95.556946,95.505386 92.383713,97.167740 
	C91.999924,97.038971 92.001755,96.856018 92.313004,96.291367 
	C93.123566,94.953239 93.624695,93.996811 94.366577,92.807220 
	C95.389503,90.995171 96.171661,89.416290 96.953812,87.837402 
z"/>
<path fill="#D3C779" opacity="1.000000" stroke="none" 
	d="
M94.125816,93.040375 
	C93.624695,93.996811 93.123566,94.953239 92.294487,96.017555 
	C90.592865,95.141853 89.219185,94.158279 87.539062,93.097443 
	C87.232613,93.020195 87.122635,92.535568 87.364899,92.268845 
	C87.607170,92.002121 88.037155,91.944374 88.413696,91.964874 
	C89.545311,91.991615 90.300369,91.997856 91.342720,92.155457 
	C92.461945,92.551338 93.293877,92.795853 94.125816,93.040375 
z"/>
<path fill="#733B43" opacity="1.000000" stroke="none" 
	d="
M37.867832,71.976433 
	C37.831280,72.406593 37.794724,72.836761 37.723072,73.588043 
	C36.627426,74.811783 35.566879,75.714394 34.205246,76.652344 
	C34.917557,74.870560 35.930954,73.053421 37.323475,71.352112 
	C37.757679,71.637444 37.812756,71.806938 37.867832,71.976433 
z"/>
<path fill="#2C2625" opacity="1.000000" stroke="none" 
	d="
M124.026878,90.936264 
	C123.649590,96.210114 119.297302,99.980026 114.359291,99.295906 
	C112.132362,98.987381 109.909561,98.649055 106.128853,98.097069 
	C109.505127,95.164864 111.823608,93.151337 114.453430,90.746407 
	C114.766068,90.141228 114.658577,90.036125 114.836349,90.038139 
	C116.484520,90.348740 117.738632,90.660889 119.408081,91.044815 
	C121.224564,91.056473 122.625725,90.996368 124.026878,90.936264 
z"/>
<path fill="#585357" opacity="1.000000" stroke="none" 
	d="
M114.442307,90.039703 
	C114.658577,90.036125 114.766068,90.141228 114.676003,90.424133 
	C110.374840,91.047874 106.162468,91.602493 101.541153,92.223083 
	C101.082840,91.828339 101.033470,91.367630 100.945396,90.564644 
	C103.592621,89.470901 106.365814,88.934639 108.934090,87.893082 
	C110.675476,87.186874 112.129066,85.771004 114.160767,84.502151 
	C115.101906,85.825150 115.593643,87.318527 115.797241,88.997665 
	C115.153503,89.468857 114.797905,89.754280 114.442307,90.039703 
z"/>
<path fill="#43451B" opacity="1.000000" stroke="none" 
	d="
M127.312958,89.574631 
	C127.231453,89.846046 127.149956,90.117470 126.969566,90.802048 
	C126.123192,90.923859 125.375694,90.632507 124.177628,90.021973 
	C123.421104,89.469925 123.115158,89.237053 122.837234,88.655792 
	C122.893867,87.841339 122.922478,87.375267 123.089111,86.715363 
	C123.337868,86.069321 123.448616,85.617111 123.702545,84.764320 
	C123.924828,83.236740 124.003929,82.109726 124.083031,80.982719 
	C124.562958,81.766930 125.042885,82.551147 125.719528,83.515694 
	C125.938103,83.889412 125.959984,84.082802 125.796555,84.832596 
	C126.178497,86.784218 126.745728,88.179428 127.312958,89.574631 
z"/>
<path fill="#D2D1CE" opacity="1.000000" stroke="none" 
	d="
M114.058533,117.402100 
	C112.642441,117.456772 111.482109,117.281914 110.321777,117.107063 
	C110.591064,116.404243 110.860352,115.701424 111.129631,114.998604 
	C112.191185,115.723251 113.252739,116.447906 114.058533,117.402100 
z"/>
<path fill="#ADA18A" opacity="1.000000" stroke="none" 
	d="
M122.809219,89.004181 
	C123.115158,89.237053 123.421104,89.469925 123.869362,89.953766 
	C124.011673,90.204742 124.142975,90.568108 124.084930,90.752182 
	C122.625725,90.996368 121.224564,91.056473 119.532249,90.825981 
	C119.492455,90.103661 119.743820,89.671936 120.062378,89.150040 
	C120.129578,89.059860 120.272926,88.886543 120.590881,88.913162 
	C121.542305,88.961250 122.175758,88.982712 122.809219,89.004181 
z"/>
<path fill="#D2D1CE" opacity="1.000000" stroke="none" 
	d="
M113.572784,111.789223 
	C114.047668,112.153999 114.301315,112.629494 114.554970,113.104980 
	C114.127434,113.271759 113.699898,113.438545 113.272362,113.605331 
	C113.298759,113.036865 113.325157,112.468399 113.572784,111.789223 
z"/>
<path fill="#86AE84" opacity="1.000000" stroke="none" 
	d="
M117.643616,50.515160 
	C117.870445,50.140263 118.146019,50.103619 118.838348,50.020302 
	C119.598396,51.193287 119.941689,52.412941 120.102112,53.882019 
	C119.176933,53.038769 118.434639,51.946095 117.643616,50.515160 
z"/>
<path fill="#696872" opacity="1.000000" stroke="none" 
	d="
M38.200340,71.964233 
	C37.812756,71.806938 37.757679,71.637444 37.606163,71.218315 
	C37.616573,70.221390 37.723431,69.474098 37.795135,68.348816 
	C37.942451,67.957474 38.124916,67.944122 38.579861,67.911011 
	C39.840122,69.330940 42.421684,70.896027 38.200340,71.964233 
z"/>
<path fill="#1A181E" opacity="1.000000" stroke="none" 
	d="
M89.121895,73.608139 
	C88.463615,73.697395 87.805344,73.786659 86.647285,73.657043 
	C85.775879,73.214394 85.404251,72.990631 85.032616,72.766869 
	C81.279869,69.560097 77.014755,68.871895 71.474625,70.504456 
	C73.425522,69.040245 74.685638,68.094490 76.124832,66.897690 
	C77.084503,66.453156 77.865097,66.259651 78.930176,65.968071 
	C81.777901,66.649651 84.341125,67.429298 87.468201,68.521233 
	C89.025398,69.212807 90.018745,69.592110 91.012093,69.971413 
	C91.257355,70.205444 91.502625,70.439468 91.937790,71.059143 
	C92.103378,71.625832 92.079056,71.806862 91.736603,72.005577 
	C90.652946,72.551559 89.887421,73.079849 89.121895,73.608139 
z"/>
<path fill="#6F575B" opacity="1.000000" stroke="none" 
	d="
M40.266319,48.283405 
	C40.029148,45.930504 39.977478,43.873604 39.894428,41.455582 
	C44.915844,44.318905 42.820381,49.009155 42.130829,53.685863 
	C41.609138,53.542217 41.334877,53.073086 41.013348,52.331787 
	C40.794659,50.899555 40.623241,49.739479 40.266319,48.283405 
z"/>
<path fill="#39593A" opacity="1.000000" stroke="none" 
	d="
M75.695938,29.005453 
	C75.941483,28.999931 75.927948,29.367323 75.927406,29.548412 
	C75.676224,29.635185 75.447365,29.503109 75.100388,29.189968 
	C74.960487,29.046663 75.450401,29.010975 75.695938,29.005453 
z"/>
<path fill="#696872" opacity="1.000000" stroke="none" 
	d="
M61.998531,33.001045 
	C61.997063,33.002087 61.758671,32.850388 61.758671,32.850388 
	C61.758671,32.850388 61.930695,32.863014 61.966381,32.930038 
	C62.002068,32.997059 62.000000,33.000000 61.998531,33.001045 
z"/>
<path fill="#D7DA54" opacity="1.000000" stroke="none" 
	d="
M123.559372,85.164894 
	C123.448616,85.617111 123.337868,86.069321 122.776253,86.695908 
	C121.641235,87.542358 120.957077,88.214455 120.272926,88.886543 
	C120.272926,88.886543 120.129578,89.059860 119.669785,89.098328 
	C118.168457,89.028503 117.126915,88.920204 116.085373,88.811905 
	C115.593643,87.318527 115.101906,85.825150 114.315834,84.161209 
	C114.031044,82.023781 114.040596,80.056900 114.053467,77.672974 
	C115.677979,76.706406 116.646637,73.089676 118.965759,76.911713 
	C118.537109,79.933243 118.188004,82.237694 117.838898,84.542145 
	C119.283936,84.673477 120.728981,84.804810 122.402451,84.988190 
	C122.932564,85.139900 123.242058,85.181450 123.559372,85.164894 
z"/>
<path fill="#DCE31D" opacity="1.000000" stroke="none" 
	d="
M122.174026,84.936142 
	C120.728981,84.804810 119.283936,84.673477 117.838898,84.542145 
	C118.188004,82.237694 118.537109,79.933243 118.997070,77.277435 
	C119.395363,77.091949 119.682800,77.257820 120.039429,77.980408 
	C120.789635,79.319283 121.470657,80.101418 122.120148,81.288773 
	C122.117081,82.774696 122.145554,83.855423 122.174026,84.936142 
z"/>
<path fill="#ADB138" opacity="1.000000" stroke="none" 
	d="
M122.402451,84.988197 
	C122.145554,83.855423 122.117081,82.774696 122.446388,81.241943 
	C123.017731,80.736214 123.231285,80.682518 123.444832,80.628822 
	C123.444832,80.628822 123.766541,80.800713 123.924789,80.891716 
	C124.003929,82.109726 123.924828,83.236740 123.702545,84.764320 
	C123.242058,85.181450 122.932564,85.139900 122.402451,84.988197 
z"/>
<path fill="#808B23" opacity="1.000000" stroke="none" 
	d="
M123.389084,80.292839 
	C123.231285,80.682518 123.017731,80.736214 122.477928,80.836731 
	C121.470657,80.101418 120.789635,79.319283 120.117767,78.226074 
	C121.195732,78.595627 122.264534,79.276245 123.389084,80.292839 
z"/>
<path fill="#5E6848" opacity="1.000000" stroke="none" 
	d="
M127.471619,89.473534 
	C126.745728,88.179428 126.178497,86.784218 125.822266,85.123398 
	C126.823647,85.543831 127.614021,86.229889 128.624359,87.144180 
	C128.662277,87.725342 128.480209,88.078255 128.233337,88.617950 
	C128.001892,89.006065 127.822456,89.195297 127.471619,89.473534 
z"/>
<path fill="#696872" opacity="1.000000" stroke="none" 
	d="
M99.912514,36.656700 
	C98.394943,37.390041 96.697365,37.823734 94.536438,38.375805 
	C94.363838,37.063354 94.205750,35.861317 94.073532,34.274269 
	C95.977097,34.711853 97.854797,35.534447 99.912514,36.656700 
z"/>
<path fill="#575561" opacity="1.000000" stroke="none" 
	d="
M92.054733,71.987892 
	C92.079056,71.806862 92.103378,71.625832 92.166611,71.173149 
	C93.520714,71.020714 94.876572,70.976524 96.142960,71.291763 
	C99.163063,72.043556 100.431526,70.569611 100.971748,67.880836 
	C101.206108,66.714371 101.586525,65.577248 101.900597,64.426796 
	C102.580650,64.438591 103.260696,64.450394 103.940742,64.462189 
	C104.053642,68.812630 104.278137,73.166298 104.152672,77.509850 
	C104.134926,78.123657 102.410889,78.688187 101.300713,78.797897 
	C98.101448,76.209473 95.078094,74.098686 92.054733,71.987892 
z"/>
<path fill="#19180D" opacity="1.000000" stroke="none" 
	d="
M91.736603,72.005577 
	C95.078094,74.098686 98.101448,76.209473 101.051727,78.587494 
	C100.542770,78.918861 100.106895,78.983002 99.099350,79.117508 
	C98.207397,79.370399 98.061806,79.645424 98.090904,80.012947 
	C97.922798,82.247391 97.754692,84.481842 96.958237,86.905098 
	C95.461349,86.084175 94.592819,85.074440 93.709686,83.748703 
	C93.621437,83.018196 93.547806,82.603691 93.629517,81.795624 
	C94.120110,75.575966 94.120110,75.575966 89.832947,74.974045 
	C89.427193,74.871681 89.265961,74.826561 89.104721,74.781441 
	C89.110306,74.587112 89.115891,74.392792 89.121689,73.903305 
	C89.887421,73.079849 90.652946,72.551559 91.736603,72.005577 
z"/>
<path fill="#918E23" opacity="1.000000" stroke="none" 
	d="
M93.724297,84.064705 
	C94.592819,85.074440 95.461349,86.084175 96.658051,87.193489 
	C96.986237,87.293068 96.964691,87.566841 96.959251,87.702118 
	C96.171661,89.416290 95.389503,90.995171 94.366577,92.807220 
	C93.293877,92.795853 92.461945,92.551338 91.565125,91.887512 
	C96.370926,90.240837 92.138466,86.278847 93.724297,84.064705 
z"/>
<path fill="#575561" opacity="1.000000" stroke="none" 
	d="
M90.890144,69.641174 
	C90.018745,69.592110 89.025398,69.212807 87.807434,68.594101 
	C88.644615,68.673447 89.706406,68.992188 90.890144,69.641174 
z"/>
<path fill="#25302A" opacity="1.000000" stroke="none" 
	d="
M111.140396,44.138180 
	C111.184311,44.244987 111.496384,44.548225 111.930237,45.170670 
	C111.837524,45.104786 111.623047,44.719700 111.140396,44.138180 
z"/>
<path fill="#575561" opacity="1.000000" stroke="none" 
	d="
M98.260277,79.881622 
	C98.061806,79.645424 98.207397,79.370399 98.770462,79.156273 
	C98.841972,79.354919 98.647446,79.563469 98.260277,79.881622 
z"/>
<path fill="#67656F" opacity="1.000000" stroke="none" 
	d="
M82.813385,80.250961 
	C82.973984,81.995621 82.912132,84.008057 82.822128,86.445023 
	C82.096527,86.914879 81.399063,86.960205 80.349449,86.990295 
	C80.861839,84.822952 81.726379,82.670845 82.813385,80.250961 
z"/>
<path fill="#67656F" opacity="1.000000" stroke="none" 
	d="
M85.038933,73.117104 
	C85.404251,72.990631 85.775879,73.214394 86.321106,73.720917 
	C86.260071,74.026962 86.025444,74.050247 85.440781,74.119995 
	C85.075577,73.933426 85.060417,73.700386 85.038933,73.117104 
z"/>
<path fill="#D3D44E" opacity="1.000000" stroke="none" 
	d="
M88.779648,74.967041 
	C89.265961,74.826561 89.427193,74.871681 89.930489,75.229996 
	C90.491890,76.045570 90.711220,76.547958 90.642143,77.240082 
	C85.948753,81.688194 87.642326,86.919930 88.037155,91.944374 
	C88.037155,91.944374 87.607170,92.002121 87.391136,92.021759 
	C83.569832,86.106369 84.851158,80.541542 88.779648,74.967041 
z"/>
<path fill="#D6D61E" opacity="1.000000" stroke="none" 
	d="
M88.413696,91.964874 
	C87.642326,86.919930 85.948753,81.688194 90.877213,77.480743 
	C92.091850,79.084167 92.783012,80.636673 93.474174,82.189186 
	C93.547806,82.603691 93.621437,83.018196 93.709686,83.748703 
	C92.138466,86.278847 96.370926,90.240837 91.277847,91.736145 
	C90.300369,91.997856 89.545311,91.991615 88.413696,91.964874 
z"/>
<path fill="#D0C7A1" opacity="1.000000" stroke="none" 
	d="
M115.797241,88.997673 
	C117.126915,88.920204 118.168457,89.028503 119.602585,89.188507 
	C119.743820,89.671936 119.492455,90.103661 119.116920,90.754211 
	C117.738632,90.660889 116.484520,90.348740 114.836349,90.038147 
	C114.797905,89.754280 115.153503,89.468857 115.797241,88.997673 
z"/>
<path fill="#7E7919" opacity="1.000000" stroke="none" 
	d="
M120.590881,88.913162 
	C120.957077,88.214455 121.641235,87.542358 122.638245,86.889732 
	C122.922478,87.375267 122.893867,87.841339 122.837234,88.655792 
	C122.175758,88.982712 121.542305,88.961250 120.590881,88.913162 
z"/>
<path fill="#918E23" opacity="1.000000" stroke="none" 
	d="
M93.629517,81.795624 
	C92.783012,80.636673 92.091850,79.084167 91.165611,77.291000 
	C90.711220,76.547958 90.491890,76.045570 90.175018,75.287239 
	C94.120110,75.575966 94.120110,75.575966 93.629517,81.795624 
z"/>
</svg>